<svg width="156" height="37" viewBox="0 0 156 37" fill="none" xmlns="http://www.w3.org/2000/svg">
<g clip-path="url(#clip0)">
<path fill-rule="evenodd" clip-rule="evenodd" d="M33.4523 9.01351C32.875 8.15169 32.4385 7.19385 31.7016 6.5717C31.766 6.5717 31.6487 6.39852 31.6406 6.38703C31.3355 6.03847 31.0301 5.68964 30.7245 5.34054C29.8793 4.58296 29.2116 3.90336 28.2817 3.22704C27.8933 2.94388 27.4364 2.77069 27.0602 2.48835C26.8901 2.3603 25.8592 1.81121 25.8592 1.81121C25.6532 1.52229 24.8641 1.38358 24.4749 1.21614C23.6786 0.87306 22.7649 0.606308 21.7878 0.354331C21.4881 0.272253 20.6967 0.121231 20.6275 0.210695C20.4418 0.0883995 19.8132 0.0334076 19.691 0.108098C19.6438 0.0637763 19.6642 0.108098 19.6707 0.04654L18.0828 0.00550126C17.828 0.153241 17.4314 -0.0765762 17.0446 0.0260206C16.5268 0.161448 16.1815 0.0974281 15.5993 0.108098C15.6107 0.146675 15.6156 0.186072 15.5789 0.169656C15.4503 0.112202 14.614 0.312471 14.4186 0.37485C14.2867 0.415889 14.0709 0.578402 13.8893 0.559524C13.762 0.57004 13.641 0.620239 13.5432 0.70316C13.29 0.751586 11.782 1.12996 11.6501 1.31874H11.4058C11.1615 1.42873 10.7861 1.70451 10.4897 1.83173C10.2707 1.92529 9.75686 2.18055 9.71614 2.32419C9.66566 2.30777 9.70637 2.33322 9.65507 2.28315L7.90438 3.30912C7.61287 3.50857 7.33438 3.86396 7.06974 4.10938C6.69762 4.45656 6.24814 4.71593 5.86869 5.05327C5.36655 5.56543 4.86441 6.07841 4.36227 6.59222C4.1302 6.86226 4.03656 7.1167 3.85335 7.33092C3.49914 7.7413 3.06024 8.21161 2.81515 8.66468L2.20444 9.42389C2.0481 9.71034 1.89257 9.99844 1.73623 10.2857C1.29652 11.0022 0.724084 11.947 0.555528 12.9327C0.357659 14.0892 0.136176 15.3622 0.00589132 16.6262V18.0831C-0.071465 20.3492 0.657313 22.7615 1.49195 24.5672C1.85593 25.3551 2.19548 26.2736 2.63193 26.968C4.40054 29.7824 6.57955 32.0206 9.47186 33.6778C12.4708 35.3957 16.5097 36.6794 20.8514 35.6066C29.0235 33.5859 34.9587 28.2155 35.9155 19.1911C36.3479 15.1119 35.0564 11.4077 33.4523 9.01351ZM32.0884 11.8862C32.2936 11.5686 32.5436 11.2698 32.6991 10.9013C33.0875 11.1623 33.0248 11.86 33.3098 12.235C33.4662 12.4402 33.4995 12.8564 33.6355 13.1584C34.1827 14.3674 34.3928 15.9967 34.3887 17.4675C33.8904 17.3394 32.3278 16.4743 32.0273 16.5236C31.4525 16.1411 30.8124 15.592 30.1545 15.2104C30.2302 14.8886 30.4932 14.6128 30.6431 14.3485C31.1292 13.49 31.5575 12.7062 32.0884 11.8862ZM30.8263 7.65923C31.0966 8.26414 31.6577 8.78615 31.9459 9.30078C31.8857 9.42143 31.7399 9.47478 31.6609 9.58805C31.6805 9.9574 32.0558 10.4334 31.9256 10.8192C31.8547 11.0285 31.573 11.1869 31.4777 11.3732C31.0233 12.2547 30.2416 12.9261 29.5641 13.6919L28.8109 14.5332L27.7117 14.9641C27.3542 15.0618 26.7899 14.8065 26.4699 14.7179C25.4716 14.4396 24.3951 14.5324 23.5385 14.1023H23.4978C23.4913 12.6807 24.0401 11.3535 24.0067 9.97792C24.2982 9.6217 24.59 9.26603 24.8821 8.91091L26.0017 8.45948L29.3809 7.14624C29.8231 7.3104 30.078 7.59439 30.4395 7.82338C30.6439 7.80204 30.6553 7.69862 30.8263 7.65923ZM25.2892 21.4482C25.2322 21.4015 25.1434 21.4154 25.0653 21.4072C24.5417 21.7413 24.7119 22.3478 24.8617 22.9256C25.0816 23.0364 25.3275 22.9437 25.5742 22.9667L25.6149 22.9872V23.2334C24.6011 23.0455 23.2787 23.286 22.4392 22.9256C22.4124 22.7131 22.3847 22.5013 22.3578 22.2895C22.782 21.9612 23.2576 21.3957 23.5385 20.9353C23.6872 20.6617 23.8365 20.3881 23.9864 20.1145C24.1492 19.9577 24.3772 20.0234 24.6174 19.9298C25.0726 19.9856 25.6507 21.4663 25.7574 21.8176C25.8185 22.0195 25.9781 22.2838 25.8592 22.5358L25.8185 22.5973L25.676 22.5153C25.7085 22.0548 25.6426 21.6222 25.2892 21.4482ZM21.7878 22.9462C21.8424 22.7754 22.0134 22.7057 22.1135 22.5768C22.1648 22.6244 22.1526 22.7328 22.1135 22.8436C22.1322 22.9913 21.9262 22.9634 21.7878 22.9462ZM22.0728 21.7766H22.0321C21.6722 21.387 21.3125 20.9971 20.9532 20.607C20.8278 20.5076 20.8799 20.5052 20.9532 20.3812C21.2675 20.483 22.0622 21.3021 22.2764 21.5714L22.0728 21.7766ZM18.9785 25.7368C18.8605 26.2293 19.2961 26.6355 19.7725 26.6602L19.8335 26.8243V26.8448C19.2692 26.9712 17.9908 25.3847 17.7164 24.9776C17.8223 24.7313 17.8988 24.4424 18.1236 24.321L19.06 24.1363C19.6104 23.9894 20.3001 23.7694 20.7292 23.4591L21.2789 23.7054C21.4271 23.8745 21.2243 24.3833 21.1771 24.5672C20.96 25.3332 20.7428 26.0993 20.5257 26.8654C20.1495 26.7324 20.4255 26.3688 20.5053 26.0241C20.1723 25.626 19.3914 25.1967 18.9785 25.7368ZM14.5815 24.7724C14.2606 24.2914 13.5831 24.5738 13.1565 24.7519C13.1426 24.9907 13.1296 25.2304 13.1158 25.47L13.0954 25.5316L12.8918 25.5521C12.9032 24.9037 12.8821 22.9084 13.1768 22.3716C13.2583 22.2559 13.6312 22.2748 13.7875 22.2485C14.2443 22.5924 14.61 23.0693 15.0904 23.3976C15.3575 23.5798 15.8232 23.7103 16.0064 23.9106C16.1546 24.0747 16.1693 24.3562 16.1693 24.6698C15.8273 25.1343 14.215 25.8591 13.5432 25.7984V25.6958C13.9032 25.4495 14.4162 25.7319 14.6629 25.1623C14.7313 24.9997 14.6417 24.8627 14.5815 24.7724ZM10.3676 18.8833C9.83829 18.6371 9.55329 19.4004 9.4515 19.7041L9.30901 19.7451H9.28865C9.18524 19.0885 10.7397 17.9296 11.1615 17.5701C12.0759 17.7958 11.8748 18.6256 12.159 19.4784C12.3283 19.8745 12.498 20.2713 12.6679 20.6685C12.5946 20.8097 12.5107 21.1084 12.3829 21.202C12.1386 21.2718 11.7372 21.0912 11.5076 21.0379C10.7548 20.8755 10.0135 20.663 9.28865 20.4018L9.30901 20.2786C9.50688 20.1629 9.85539 20.3451 10.1029 20.4223C10.4229 20.1646 11.0589 19.1887 10.3676 18.8833ZM10.5101 13.774C10.5752 14.1384 10.7543 14.3633 11.0801 14.4717C11.8357 14.3986 11.5743 13.472 11.4261 12.9737C11.1908 12.8465 10.9196 12.9352 10.6322 12.8917V12.6454C11.5124 12.6635 12.3015 12.6922 13.1158 12.8301L13.7672 12.9122C13.8828 12.9828 13.8649 13.4047 13.8893 13.5893C13.47 13.8799 13.0083 14.4725 12.729 14.9026C12.5099 15.2391 12.4244 15.6848 12.0775 15.8875C11.8976 15.9917 11.6533 15.9335 11.4872 15.9696C11.2307 15.6462 10.0899 13.8971 10.3472 13.3431L10.3676 13.2815L10.4897 13.3226C10.5524 13.4482 10.4702 13.5516 10.5101 13.774ZM14.215 14.1023C14.4194 14.2 15.2557 15.1234 15.355 15.3335C15.3811 15.4049 15.3338 15.4073 15.2939 15.5181C14.9226 15.2399 14.2004 14.6563 13.9911 14.287L14.215 14.1023ZM14.1947 12.9122H14.4593L14.4797 12.9532L14.1336 13.2815C14.1225 13.1552 14.1435 13.0281 14.1947 12.9122ZM17.2075 10.2036C17.3199 9.72676 16.8712 9.30078 16.4543 9.30078C16.4137 9.2764 16.3831 9.23812 16.3682 9.19292C16.3532 9.14772 16.3549 9.09861 16.3729 9.05454C17.3158 9.33525 17.8728 10.2496 18.4493 10.9218C18.5397 11.8714 17.1806 11.7574 16.5154 12.0299L15.4568 12.4813L14.9682 12.2556C14.8331 12.0216 14.9813 11.6285 15.0497 11.3732C15.2557 10.6075 15.4161 9.79817 15.6807 9.07506L15.8436 9.15714L15.9047 9.19818C15.8786 9.45426 15.7605 9.62991 15.6807 9.8548C16.0178 10.3235 16.7018 10.7059 17.2075 10.2036ZM18.5511 12.153H18.6936C18.7628 12.1407 18.7424 12.1366 18.7953 12.1735C18.7345 12.7677 18.6735 13.3628 18.6121 13.9587H18.49L18.5511 12.153ZM18.49 11.6195C18.5445 11.544 18.5983 11.4684 18.6528 11.3938L18.9175 11.5579L18.9785 11.64L18.5103 11.6605L18.49 11.6195ZM18.6325 14.4922C19.3458 14.5184 20.5314 15.4771 20.8514 15.9491C21.0712 16.2708 21.1771 16.6722 21.3196 17.0571C21.4336 17.3591 21.6315 18.1241 21.5232 18.514C21.1975 19.6885 20.296 20.5503 19.2432 21.0173C18.9175 21.1626 18.0299 21.5763 17.5128 21.4277C15.754 20.9213 13.8828 18.3293 15.2125 16.3594C15.7345 15.5855 16.4657 15.0232 17.4314 14.6974L18.6325 14.4922ZM23.1721 11.168C23.1786 10.9284 23.1859 10.6887 23.1924 10.4499L23.2331 10.4088H23.396C23.4774 10.7749 23.2934 13.2889 23.1314 13.6098C23.041 13.7018 22.699 13.6919 22.5614 13.7124C22.0932 13.3201 21.6657 12.7932 21.1364 12.4813C20.8864 12.3344 20.5306 12.2589 20.3425 12.0504C20.2114 11.9051 20.1079 11.5407 20.1796 11.2706C20.4312 10.7839 21.8961 10.3415 22.4799 10.101L22.7446 10.1421L22.8056 10.2241L22.7039 10.3267C22.1461 10.4852 21.9042 10.275 21.6453 10.8397C21.6543 11.7098 22.7242 11.4176 23.1721 11.168ZM21.34 15.8875C21.4214 15.6183 22.4612 15.1857 22.7039 14.9436C22.7681 14.9899 22.8176 15.0541 22.8464 15.1283L21.3807 15.9696V15.9285C21.3668 15.9146 21.3538 15.9006 21.34 15.8875ZM21.7878 13.774C21.8402 13.7969 21.8872 13.8307 21.9257 13.8731C21.9643 13.9155 21.9936 13.9657 22.0117 14.0202L20.8107 15.1693H20.7903L20.6478 15.0872C20.7797 14.6572 21.5085 14.1466 21.7878 13.774ZM20.1796 14.6563L19.9964 14.5948L19.976 14.5537C20.2643 14.0276 20.6812 13.5639 21.0753 13.1379L21.2789 13.1995L21.34 13.3021C21.1616 13.3997 20.2993 14.3707 20.1796 14.6563ZM22.2764 14.3691L22.4392 14.5127C22.2764 14.8878 21.4621 15.2243 21.1771 15.5592H21.1364L21.055 15.4976L21.0346 15.4361L22.2764 14.3691ZM23.0296 15.5387H23.0906C23.1379 15.6339 23.1859 15.7299 23.2331 15.8259C22.7039 16.0508 22.1746 16.2765 21.6453 16.5031H21.6249C21.6111 16.4481 21.5981 16.3931 21.5842 16.3389C21.9555 15.977 22.5825 15.8161 23.0296 15.5387ZM22.8464 13.9997L23.1924 14.0202C23.1859 14.0949 23.1786 14.1704 23.1721 14.2459V14.287L22.8464 13.9997ZM21.7267 19.1706C22.2967 19.4546 22.8521 19.7057 23.3756 20.0119C23.3488 20.0866 23.3211 20.1621 23.2942 20.2376L23.2535 20.2992L21.7064 19.3963C21.6697 19.2995 21.699 19.2937 21.7267 19.1706ZM21.971 18.8218L23.7624 19.2322L23.7014 19.4579C23.5369 19.5457 21.9702 18.9285 21.971 18.8218ZM22.0524 18.3293L22.0321 18.2062L22.1135 18.1651L23.8642 18.2472C23.8811 18.2833 23.8881 18.3232 23.8846 18.3629C23.881 18.4026 23.8669 18.4406 23.8439 18.4729C23.7201 18.5739 22.3716 18.3326 22.0524 18.3293ZM21.9303 17.8779C21.9238 17.8163 21.9165 17.7548 21.9099 17.6932L23.7014 17.3033C23.7478 17.3632 23.7543 17.5364 23.7624 17.6316L21.9303 17.8779ZM23.5589 16.7083C23.3651 16.9028 22.2381 17.2721 21.8692 17.2828C21.8627 17.2139 21.8554 17.1457 21.8489 17.0776C22.3659 16.9348 23.0849 16.7222 23.4978 16.421L23.5792 16.4826C23.5727 16.5572 23.5654 16.6328 23.5589 16.7083ZM23.396 14.7384L23.2128 14.3896H23.4571L23.4774 14.4306C23.4514 14.5332 23.4229 14.6358 23.396 14.7384ZM20.2814 12.6865L20.5664 12.8096L19.63 14.328C19.5665 14.3838 19.5534 14.3518 19.4671 14.328C19.573 13.7182 20.0314 13.1937 20.2814 12.6865ZM19.5078 12.2556L19.7318 12.3582C19.5591 12.7759 19.4402 13.87 19.121 14.0818L19.06 14.0408C19.2093 13.446 19.3585 12.8509 19.5078 12.2556ZM19.4875 11.7426V11.7015L19.7928 11.5784C19.8914 11.6383 19.9492 11.8189 19.9964 11.9273L19.4875 11.7426ZM19.4264 21.4893L19.5282 21.4482H19.5893L20.4035 22.9667L20.0982 23.1103C19.9166 22.576 19.4964 22.0901 19.4264 21.4893ZM19.5485 23.4386L19.2839 23.5207C19.0649 23.2933 18.7082 22.182 18.6732 21.7766L18.7139 21.7355H18.8768L19.5485 23.4386ZM19.9353 21.243L20.0575 21.161C20.2203 21.243 20.9605 22.3281 21.0142 22.5358L20.77 22.7204C20.4915 22.228 20.2133 21.7355 19.9353 21.243ZM18.5714 23.6438L18.2864 23.7259C18.161 23.1924 18.1871 22.5514 18.0421 21.9612V21.8586L18.1236 21.8381H18.2253C18.3437 22.44 18.459 23.0419 18.5714 23.6438ZM17.635 23.808L17.4721 23.8285H17.4518C17.3264 23.524 17.543 22.3322 17.6146 21.9612H17.7164C17.8329 22.2559 17.6936 23.3648 17.635 23.808ZM14.1947 17.4675L14.215 17.5085L14.1947 17.5701C13.7794 17.7113 12.9822 17.4404 12.4033 17.529C12.3581 17.4556 12.3434 17.3671 12.3625 17.2828L14.1947 17.4675ZM12.505 16.6467C12.5189 16.5712 12.5319 16.4957 12.5458 16.421L14.2761 16.934C14.2826 16.9816 14.2899 17.0292 14.2965 17.0776L12.5254 16.6672L12.505 16.6467ZM13.6247 17.96L14.2557 17.8984C14.3152 17.9468 14.325 17.9805 14.3372 18.0831L12.4847 18.4524C12.4782 18.3564 12.4708 18.2604 12.4643 18.1651L13.6247 17.96ZM13.5025 16.2568L12.8715 15.8875L12.9733 15.6002L14.5407 16.5031L14.5815 16.5646C14.5496 16.6067 14.5286 16.656 14.5204 16.7083L13.5025 16.2568ZM14.5611 19.2937C14.6425 19.3315 14.6425 19.3602 14.6629 19.4579C14.5481 19.59 13.3747 20.1966 13.1565 20.2581C13.0742 20.1815 13.0174 20.0812 12.9936 19.9708C13.5164 19.7454 14.0389 19.5197 14.5611 19.2937ZM13.1565 21.6329L13.4618 21.9202V21.9612L13.1565 21.9407V21.6329ZM13.3804 20.648L14.8257 19.8067C14.8599 19.8609 14.8933 19.9159 14.9275 19.9708L13.5229 20.8532C13.4757 20.7842 13.4276 20.7161 13.3804 20.648ZM15.1311 20.3197C15.1856 20.3739 15.2394 20.4288 15.2939 20.4838L14.0725 21.5508V21.5919L13.93 21.4277L13.8893 21.3456C14.1751 21.2069 14.9829 20.5897 15.1311 20.3197ZM15.5382 20.7711L15.6807 20.8327L15.7011 20.8942L14.5815 22.1254L14.5204 22.1664L14.3575 21.9817L14.3168 21.8997L15.5382 20.7711ZM16.1489 21.2841L16.2914 21.3456H16.3321C16.0927 21.9202 15.5863 22.2551 15.2939 22.7615L15.1107 22.782C14.8925 22.5538 15.9511 21.6157 16.1489 21.2841ZM16.8207 14.4101L16.8004 14.4511L16.6782 14.4922C16.4771 14.3387 16.0056 13.2832 15.8436 12.9943L16.0879 12.8301C16.3159 12.954 16.6864 14.0998 16.8207 14.4101ZM16.6782 12.5018L16.9225 12.4197C17.0984 12.5478 17.5226 13.8323 17.5332 14.1639L17.35 14.2049L16.6782 12.5018ZM16.3118 14.6358V14.6563L16.1286 14.7589L15.2125 13.3841L15.4161 13.22H15.4975L16.3118 14.6358ZM17.6553 12.2761L17.8793 12.2966L17.9403 12.2761C18.0894 12.8785 18.0218 13.4252 18.1846 14.0408C18.1602 14.0636 18.1312 14.0809 18.0996 14.0915C18.068 14.1021 18.0345 14.1058 18.0014 14.1023C17.8858 13.4933 17.7704 12.8846 17.6553 12.2761ZM15.1107 12.6249L14.7443 12.8096H14.6832L14.785 12.5018L15.1107 12.6249ZM14.785 13.6304H14.8664C15.1856 14.0741 15.5046 14.5187 15.8232 14.9641L15.7011 15.0872H15.6604L14.5815 13.8356L14.785 13.6304ZM14.8664 15.908C14.8974 16.0065 14.8534 15.9786 14.8257 16.1132C14.2378 15.8818 13.8486 15.3474 13.36 15.0052L13.3397 14.9436L13.5025 14.7384L14.8664 15.908ZM11.8129 16.2774L12.1386 16.1337C12.0841 16.3044 12.0303 16.4752 11.9758 16.6467L11.9351 16.6672L11.8129 16.2774ZM11.8943 17.6316L11.6501 17.4264L11.6297 17.3444L11.8536 17.0776C11.8675 17.2623 11.8805 17.447 11.8943 17.6316ZM12.6068 19.1911C12.6207 19.1566 12.6337 19.1222 12.6475 19.0885C13.1508 18.8423 13.7737 18.7774 14.2965 18.514L14.3779 18.5755L14.3982 18.6371V18.7192C13.7957 18.8513 13.2444 19.1443 12.6883 19.3963C12.6614 19.3274 12.6337 19.2592 12.6068 19.1911ZM12.8308 21.0584L13.0547 21.4482V21.4688L12.8104 21.3867H12.7697L12.8308 21.0584ZM16.0675 23.2745L15.7825 23.1719C16.1017 22.6384 16.4206 22.1049 16.7393 21.5714L16.8614 21.6124C16.9062 22.0138 16.219 22.8879 16.0675 23.2745ZM16.8004 23.7054L16.6171 23.6233C16.7263 23.0332 16.9062 22.3659 17.1464 21.8586L17.2686 21.9202C17.078 22.425 17.0943 23.3401 16.8004 23.7054ZM16.8411 24.2184V24.2389L16.495 24.362C16.4404 24.2454 16.3867 24.1289 16.3321 24.0132L16.8411 24.2184ZM17.6757 24.2799H17.7571L17.5536 24.5261L17.4925 24.5672L17.2279 24.362L17.2075 24.321L17.6757 24.2799ZM21.116 23.336L21.4824 23.1103H21.5435C21.5476 23.1997 21.5186 23.2875 21.4621 23.3565L21.4417 23.4181L21.116 23.336ZM21.4214 22.2485L20.4035 20.9353L20.5664 20.7916C20.8489 20.9344 21.489 21.7766 21.686 22.0638L21.4214 22.2485ZM21.3603 19.9503L21.4417 19.7657C22.0231 19.984 22.3505 20.6037 22.8871 20.8532L22.9278 20.9147L22.7649 21.161L21.3603 19.9503ZM24.1288 19.7246C24.1761 19.5605 24.2241 19.3963 24.2713 19.2322C24.3446 19.2945 24.4155 19.5153 24.4342 19.622C24.3306 19.6388 24.2327 19.6811 24.1492 19.7451L24.1288 19.7246ZM24.4546 18.6371L24.3731 18.6987C24.3593 18.514 24.3463 18.3293 24.3324 18.1446L24.6174 18.4114C24.5629 18.4861 24.5099 18.5616 24.4546 18.6371ZM23.9456 16.0311C23.817 15.7362 23.6881 15.4421 23.5589 15.1488L23.7828 14.5948C24.9521 14.6292 25.8567 15.2227 26.877 15.395L26.8974 15.4976L26.877 15.5387C26.7142 15.6478 26.3388 15.4459 26.1238 15.3745C25.7883 15.7709 25.3169 16.1526 25.7167 16.8109C26.1865 17.1671 26.6849 16.5646 26.7345 16.0927L26.877 16.0311L26.9177 16.0517C27.0106 16.7362 25.5017 17.8352 25.0653 18.2062C24.1362 18.0822 24.2257 16.7887 23.9456 16.0311ZM28.0781 5.05327C28.5276 5.44149 29.2824 5.79196 29.5438 6.34599H29.5845L28.5463 6.59222C28.1782 6.71205 27.7825 6.69153 27.3656 6.81793C27.0684 6.9074 26.645 7.15527 26.2867 7.14624C25.8567 7.13475 25.1972 7.26936 24.7803 7.41299H24.6581C24.4687 6.68743 24.2787 5.96241 24.0881 5.23794C24.0409 4.36901 23.9934 3.50036 23.9456 2.63198C25.4871 3.02842 26.9528 4.0749 28.0781 5.05327ZM18.4086 1.83173C18.6455 1.52476 19.1943 2.05498 19.5893 1.3803C20.1934 1.46238 20.4133 1.3409 21.0142 1.50342L22.2967 1.87276C22.3716 2.04349 22.4457 2.21421 22.5207 2.38575C22.7413 2.45716 23.0735 2.5499 23.2739 2.61146C23.5589 3.54797 23.2079 4.36628 23.396 5.38158C23.4025 5.62781 23.4098 5.87404 23.4164 6.12027C23.4837 6.72218 23.5515 7.32408 23.6199 7.92598C23.6248 8.1837 23.5108 8.29861 23.5181 8.45948C22.8016 9.59461 21.7495 9.78996 20.5664 10.4704L19.345 11.2912C19.0464 10.8873 18.7478 10.4838 18.4493 10.0805C17.8964 9.36069 17.0007 8.83458 16.5764 8.00806C16.495 7.8439 16.3207 6.9312 16.3932 6.73586C16.7132 5.86912 17.2222 5.00566 17.5536 4.15041C17.8597 3.35837 17.9501 2.53349 18.4086 1.83173ZM12.3015 2.7551C13.3828 2.30039 14.5546 2.03282 15.5382 1.74965L17.1871 1.54445H17.2075C17.2621 1.59288 17.5609 1.58139 17.6757 1.56497L17.7164 1.58549C17.4786 2.24211 17.2124 2.96111 16.9429 3.43224L16.6375 4.15041C16.3305 4.55341 15.6783 5.37583 15.5179 5.85352C15.1645 5.87404 14.7435 5.47432 14.4593 5.32002C13.5587 4.82755 12.8023 4.33509 11.9554 3.84262C11.6639 3.67272 11.4278 3.39038 11.0393 3.30912C11.1257 3.09326 12.0344 2.86672 12.3015 2.7551ZM7.90438 5.48417C7.88565 5.32002 7.82295 5.28965 7.76188 5.17638L8.45401 4.64288L8.63723 4.39665C8.98411 4.19966 9.33425 4.11512 9.63472 3.88366L9.91971 4.15041C11.5922 3.52252 11.6411 4.66504 12.7086 5.2995C13.2648 5.62781 13.9015 6.32301 14.4797 6.77689L14.8664 7.06417C14.9552 7.19549 15.2988 8.20094 15.2532 8.39792C15.0806 9.14319 14.8852 10.0288 14.6832 10.7577C14.5253 11.3256 14.5652 11.8911 14.2965 12.3787C14.2264 12.4665 13.6328 12.4148 13.4415 12.3787L11.0393 12.0709C9.00365 12.176 8.87418 10.5935 8.31152 9.15714C7.99802 8.35689 7.53714 7.4647 7.33438 6.5717C7.23667 6.14161 7.76351 5.75339 7.90438 5.48417ZM3.34443 10.4704C3.95513 9.21542 5.00718 7.9506 5.9094 6.96157C6.16725 6.71534 6.42511 6.4691 6.68296 6.22287C6.7367 6.34106 6.67482 6.43545 6.70332 6.5717C6.79859 6.96075 6.89305 7.35144 6.98832 7.7413C7.01519 7.9941 7.04287 8.2469 7.06974 8.50052C7.32054 9.27205 7.6487 10.4901 7.61938 11.3527L5.25798 11.9067L2.67265 11.9683C2.65311 11.6589 3.19216 10.7831 3.34443 10.4704ZM1.45123 16.4005C1.66539 15.6618 1.46182 14.3994 1.85837 13.733L2.30622 13.5483L2.55051 12.7686C3.00894 12.5404 3.86801 12.7259 4.48441 12.707C5.24414 12.6832 6.13414 12.7489 7.00867 12.6044L7.94509 12.5223C9.39695 12.5075 9.7992 14.1228 10.3269 15.0872L11.4872 16.8314L10.9783 17.1597C10.6797 17.4048 10.3811 17.6511 10.0826 17.8984C9.45069 18.4114 8.93688 19.2305 8.18937 19.6015C8.05095 19.6696 7.1414 19.8428 6.9476 19.7862L5.35976 19.0064C4.63343 18.6781 3.88104 18.4705 3.10014 18.1857L1.85837 17.6316C1.8258 17.3345 1.85349 17.1293 1.85837 16.7903L1.45123 16.4005ZM3.42585 24.8955L3.38514 24.916C2.78495 23.5797 2.2815 22.2013 1.87873 20.7916C1.65806 20.0373 1.77369 19.1616 1.63445 18.3088C2.05624 18.3244 2.40394 18.5985 2.73372 18.7397C3.21251 18.9441 3.71085 19.0524 4.13835 19.3142L5.97047 20.5454C5.89637 20.8737 5.63743 21.1585 5.4819 21.4277C4.95425 22.3363 4.44614 23.1226 3.93478 24.0337C3.77518 24.3177 3.52275 24.5401 3.42585 24.8955ZM12.3829 33.3905C11.9758 33.3273 11.5898 33.0868 11.2633 32.9186C10.6119 32.5812 10.0182 32.2997 9.4515 31.8926L8.2708 30.9282C7.96708 30.7328 6.88083 29.9983 6.8051 29.6765L6.74403 29.615L7.33438 29.5329C8.17635 29.2866 9.18524 29.0757 10.0419 28.8763L11.5279 28.589H11.6704C12.1851 30.1351 12.4263 31.7603 12.3829 33.3905ZM12.2811 26.0446C11.7803 27.2757 9.76663 27.8388 8.49473 28.3428C8.20159 28.4585 7.87914 28.4905 7.55831 28.6095L6.9476 28.8557C6.45415 28.9058 6.16834 28.186 5.7669 28.1786C5.75062 28.1417 5.6244 28.2672 5.54297 28.3017C5.41432 28.3649 5.26124 28.0333 5.17655 27.9118C4.87038 27.4694 4.39077 27.0697 4.19942 26.537L4.48441 26.2703C4.37367 25.9576 4.07728 25.3888 4.19942 24.9981L4.66763 24.3825C5.12607 23.5675 5.84914 22.8928 6.49975 22.2075L7.35474 21.243L8.49473 20.8327L12.79 21.7355C12.9073 22.2337 12.6345 23.3697 12.5254 23.8695L12.2811 26.0446ZM16.9632 34.1703L16.6579 34.5396C15.9999 34.8425 14.6889 34.2696 14.0522 34.1703L13.869 33.6778L13.1158 33.4316C12.8715 32.9391 12.9798 31.4806 13.014 30.9692L12.8308 28.4659C12.8039 28.2738 12.7762 28.0826 12.7493 27.8913C12.9936 26.1989 15.9584 25.8394 16.9021 24.6903L18.0014 26.1267C18.49 26.6429 19.4557 27.3956 19.6503 28.076C19.7212 28.3222 19.8987 28.8048 19.8132 29.102C19.5559 29.9917 18.9859 30.7854 18.6732 31.6874C18.4379 32.3662 18.1846 33.7393 17.7368 34.1703H16.9632ZM23.7624 33.1443C22.2715 33.8502 20.3237 34.4485 18.4493 34.396L18.4289 34.3755C18.5576 34.0745 18.6865 33.7735 18.8157 33.4726C19.1194 32.77 19.323 32.0945 19.7114 31.5027L20.6478 30.0869C20.9735 30.1862 21.252 30.3972 21.5232 30.5588C22.3146 31.03 23.0198 31.4313 23.7828 31.9131C24.1443 32.1413 24.5311 32.5525 25.0042 32.6313C24.72 32.9186 24.1468 32.9621 23.7624 33.1443ZM28.4038 30.5588C28.0447 31.0111 26.9894 31.6694 26.4495 31.9747C26.3624 31.8926 26.3347 31.7859 26.2256 31.7284C26.0733 31.6521 25.3438 31.9353 25.0653 31.9336C24.264 31.3763 23.6313 30.636 22.8667 30.0459C22.0524 29.4163 21.1282 28.9436 20.9532 27.6656C21.293 26.2429 21.6323 24.8203 21.971 23.3976C22.9807 23.5938 23.9017 23.5987 24.8413 23.7669L26.246 23.8695C27.5659 24.426 27.7833 26.3499 28.2817 27.7067C28.4494 28.1638 28.7922 28.6957 28.8517 29.2251C28.8981 29.6355 28.4079 29.9359 28.2817 30.2305C28.2426 30.3537 28.3476 30.4636 28.4038 30.5588ZM30.7856 27.9118C30.4688 28.346 29.9013 29.2735 29.4624 29.5329C29.4355 29.3342 29.4078 29.1356 29.3809 28.9378L29.1367 28.0144C29.1098 27.7748 29.0821 27.5351 29.0552 27.2963C28.9225 26.7866 28.7295 26.1677 28.6684 25.5726C28.6285 25.191 28.4453 24.7322 28.5463 24.403C29.3606 24.3817 30.06 23.9647 30.8466 23.849L33.1673 23.7464L33.3098 23.7669C32.9043 25.4282 31.6389 26.739 30.7856 27.9118ZM34.0834 22.0228L33.5948 22.2485C33.5321 22.4241 33.3619 22.8698 33.3302 23.0693C33.1364 22.9741 32.6657 23.1596 32.6584 23.1514C32.3074 23.1423 30.4403 22.901 29.8491 23.1924C29.876 23.1267 29.2971 23.162 29.0756 23.2129C28.1416 23.4255 27.6775 23.2876 26.9381 22.782C26.5497 22.5161 26.4194 21.8045 26.1645 21.3046C25.9061 20.8532 25.6483 20.4018 25.391 19.9503C25.1915 19.5999 24.8422 19.3971 24.6988 18.9654L25.452 18.4524L26.4088 17.6316C26.9422 17.1868 27.386 16.3652 28.0781 16.1132L29.157 15.9285C30.1407 16.421 31.1927 16.8437 32.2105 17.3033L33.3302 17.6727L34.1037 18.042C34.2357 18.2505 34.1697 18.6617 34.1445 18.8833C34.2567 19.0304 34.3947 19.1556 34.5516 19.2527C34.5435 20.309 34.2063 21.1249 34.0834 22.0228Z" fill="#231F20"/>
</g>
<path d="M46.272 3.54H47.064L48.264 6.564L49.476 3.54H50.28L48.792 7.176L50.424 11.028L53.508 3.48H54.42L50.808 12H50.064L48.276 7.788L46.476 12H45.744L42.144 3.48H43.044L46.14 11.028L47.76 7.176L46.272 3.54ZM56.4251 12.12C56.1291 12.12 55.8531 12.072 55.5971 11.976C55.3491 11.872 55.1291 11.732 54.9371 11.556C54.7531 11.38 54.6091 11.176 54.5051 10.944C54.4011 10.704 54.3491 10.448 54.3491 10.176C54.3491 9.904 54.4131 9.652 54.5411 9.42C54.6691 9.188 54.8491 8.988 55.0811 8.82C55.3131 8.652 55.5891 8.524 55.9091 8.436C56.2291 8.34 56.5811 8.292 56.9651 8.292C57.2851 8.292 57.6091 8.32 57.9371 8.376C58.2651 8.432 58.5571 8.512 58.8131 8.616V8.052C58.8131 7.5 58.6571 7.064 58.3451 6.744C58.0331 6.416 57.6011 6.252 57.0491 6.252C56.7291 6.252 56.4011 6.316 56.0651 6.444C55.7291 6.572 55.3891 6.756 55.0451 6.996L54.7571 6.456C55.5651 5.912 56.3491 5.64 57.1091 5.64C57.8931 5.64 58.5091 5.86 58.9571 6.3C59.4051 6.74 59.6291 7.348 59.6291 8.124V10.944C59.6291 11.168 59.7291 11.28 59.9291 11.28V12C59.7931 12.024 59.6891 12.036 59.6171 12.036C59.4091 12.036 59.2451 11.984 59.1251 11.88C59.0131 11.776 58.9531 11.632 58.9451 11.448L58.9211 10.956C58.6331 11.332 58.2691 11.62 57.8291 11.82C57.3971 12.02 56.9291 12.12 56.4251 12.12ZM56.6171 11.496C57.0411 11.496 57.4291 11.416 57.7811 11.256C58.1411 11.096 58.4131 10.884 58.5971 10.62C58.6691 10.548 58.7211 10.472 58.7531 10.392C58.7931 10.304 58.8131 10.224 58.8131 10.152V9.132C58.5411 9.028 58.2571 8.948 57.9611 8.892C57.6731 8.836 57.3771 8.808 57.0731 8.808C56.4971 8.808 56.0291 8.928 55.6691 9.168C55.3091 9.408 55.1291 9.724 55.1291 10.116C55.1291 10.308 55.1651 10.488 55.2371 10.656C55.3171 10.824 55.4211 10.972 55.5491 11.1C55.6851 11.22 55.8451 11.316 56.0291 11.388C56.2131 11.46 56.4091 11.496 56.6171 11.496ZM61.5998 13.92C61.6638 13.928 61.7238 13.932 61.7798 13.932C61.8438 13.94 61.9038 13.944 61.9598 13.944C62.1038 13.944 62.2158 13.924 62.2958 13.884C62.3838 13.844 62.4678 13.756 62.5478 13.62C62.6278 13.484 62.7158 13.288 62.8118 13.032C62.9158 12.776 63.0598 12.432 63.2438 12L60.5198 5.748H61.3598L63.6758 11.244L65.8238 5.748H66.6038L63.3638 13.812C63.2758 14.044 63.1278 14.244 62.9198 14.412C62.7198 14.588 62.4438 14.676 62.0918 14.676C62.0118 14.676 61.9358 14.672 61.8638 14.664C61.7918 14.664 61.7038 14.656 61.5998 14.64V13.92ZM74.0742 12.06C73.4822 12.06 72.9382 11.94 72.4422 11.7C71.9542 11.452 71.5342 11.128 71.1822 10.728C70.8302 10.32 70.5582 9.856 70.3662 9.336C70.1742 8.816 70.0782 8.284 70.0782 7.74C70.0782 7.172 70.1782 6.628 70.3782 6.108C70.5862 5.588 70.8702 5.128 71.2302 4.728C71.5902 4.328 72.0142 4.012 72.5022 3.78C72.9902 3.54 73.5182 3.42 74.0862 3.42C74.6782 3.42 75.2182 3.548 75.7062 3.804C76.2022 4.052 76.6222 4.38 76.9662 4.788C77.3182 5.196 77.5902 5.66 77.7822 6.18C77.9742 6.692 78.0702 7.216 78.0702 7.752C78.0702 8.32 77.9662 8.864 77.7582 9.384C77.5582 9.904 77.2782 10.364 76.9182 10.764C76.5662 11.156 76.1462 11.472 75.6582 11.712C75.1702 11.944 74.6422 12.06 74.0742 12.06ZM70.9182 7.74C70.9182 8.204 70.9942 8.652 71.1462 9.084C71.2982 9.508 71.5142 9.888 71.7942 10.224C72.0742 10.552 72.4062 10.816 72.7902 11.016C73.1742 11.208 73.6022 11.304 74.0742 11.304C74.5542 11.304 74.9902 11.2 75.3822 10.992C75.7742 10.784 76.1062 10.512 76.3782 10.176C76.6502 9.84 76.8582 9.46 77.0022 9.036C77.1542 8.612 77.2302 8.18 77.2302 7.74C77.2302 7.276 77.1502 6.832 76.9902 6.408C76.8382 5.976 76.6222 5.596 76.3422 5.268C76.0622 4.94 75.7302 4.68 75.3462 4.488C74.9622 4.288 74.5382 4.188 74.0742 4.188C73.5942 4.188 73.1582 4.292 72.7662 4.5C72.3742 4.7 72.0422 4.968 71.7702 5.304C71.4982 5.64 71.2862 6.02 71.1342 6.444C70.9902 6.868 70.9182 7.3 70.9182 7.74ZM79.7859 12V6.396H78.9219V5.748H79.7859V5.58C79.7859 4.812 79.9499 4.212 80.2779 3.78C80.6059 3.34 81.0539 3.12 81.6219 3.12C81.8699 3.12 82.1099 3.156 82.3419 3.228C82.5739 3.3 82.7739 3.396 82.9419 3.516L82.6899 4.104C82.5779 4.016 82.4379 3.948 82.2699 3.9C82.1099 3.852 81.9459 3.828 81.7779 3.828C81.3939 3.828 81.1019 3.976 80.9019 4.272C80.7019 4.568 80.6019 4.996 80.6019 5.556V5.748H82.3299V6.396H80.6019V12H79.7859ZM85.8517 7.68C85.8517 7.168 85.9397 6.66 86.1157 6.156C86.2997 5.644 86.5637 5.188 86.9077 4.788C87.2517 4.388 87.6757 4.064 88.1797 3.816C88.6837 3.56 89.2557 3.432 89.8957 3.432C90.6557 3.432 91.3037 3.604 91.8397 3.948C92.3837 4.292 92.7837 4.74 93.0397 5.292L92.3797 5.7C92.2437 5.42 92.0757 5.184 91.8757 4.992C91.6837 4.8 91.4757 4.644 91.2517 4.524C91.0277 4.404 90.7957 4.32 90.5557 4.272C90.3157 4.216 90.0797 4.188 89.8477 4.188C89.3357 4.188 88.8837 4.292 88.4917 4.5C88.0997 4.708 87.7677 4.98 87.4957 5.316C87.2317 5.652 87.0317 6.032 86.8957 6.456C86.7597 6.872 86.6917 7.296 86.6917 7.728C86.6917 8.2 86.7717 8.652 86.9317 9.084C87.0997 9.516 87.3237 9.9 87.6037 10.236C87.8917 10.564 88.2277 10.828 88.6117 11.028C89.0037 11.22 89.4277 11.316 89.8837 11.316C90.1237 11.316 90.3677 11.288 90.6157 11.232C90.8717 11.168 91.1157 11.072 91.3477 10.944C91.5877 10.808 91.8077 10.644 92.0077 10.452C92.2077 10.252 92.3757 10.012 92.5117 9.732L93.2077 10.092C93.0717 10.412 92.8797 10.696 92.6317 10.944C92.3837 11.184 92.1077 11.388 91.8037 11.556C91.4997 11.724 91.1757 11.852 90.8317 11.94C90.4957 12.028 90.1637 12.072 89.8357 12.072C89.2517 12.072 88.7157 11.944 88.2277 11.688C87.7397 11.432 87.3197 11.1 86.9677 10.692C86.6157 10.276 86.3397 9.808 86.1397 9.288C85.9477 8.76 85.8517 8.224 85.8517 7.68ZM97.1382 12.12C96.6822 12.12 96.2662 12.036 95.8902 11.868C95.5142 11.692 95.1862 11.456 94.9062 11.16C94.6342 10.864 94.4222 10.52 94.2702 10.128C94.1182 9.736 94.0422 9.324 94.0422 8.892C94.0422 8.452 94.1182 8.036 94.2702 7.644C94.4302 7.252 94.6462 6.908 94.9182 6.612C95.1982 6.316 95.5262 6.08 95.9022 5.904C96.2782 5.728 96.6902 5.64 97.1382 5.64C97.5862 5.64 97.9982 5.728 98.3742 5.904C98.7582 6.08 99.0862 6.316 99.3582 6.612C99.6382 6.908 99.8542 7.252 100.006 7.644C100.166 8.036 100.246 8.452 100.246 8.892C100.246 9.324 100.17 9.736 100.018 10.128C99.8662 10.52 99.6502 10.864 99.3702 11.16C99.0982 11.456 98.7702 11.692 98.3862 11.868C98.0102 12.036 97.5942 12.12 97.1382 12.12ZM94.8702 8.904C94.8702 9.256 94.9302 9.584 95.0502 9.888C95.1702 10.184 95.3302 10.448 95.5302 10.68C95.7382 10.904 95.9782 11.08 96.2502 11.208C96.5302 11.336 96.8262 11.4 97.1382 11.4C97.4502 11.4 97.7422 11.336 98.0142 11.208C98.2942 11.072 98.5382 10.892 98.7462 10.668C98.9542 10.436 99.1182 10.168 99.2382 9.864C99.3582 9.56 99.4182 9.232 99.4182 8.88C99.4182 8.536 99.3582 8.212 99.2382 7.908C99.1182 7.596 98.9542 7.328 98.7462 7.104C98.5382 6.872 98.2942 6.692 98.0142 6.564C97.7422 6.428 97.4502 6.36 97.1382 6.36C96.8262 6.36 96.5342 6.428 96.2622 6.564C95.9902 6.692 95.7502 6.872 95.5422 7.104C95.3342 7.336 95.1702 7.608 95.0502 7.92C94.9302 8.224 94.8702 8.552 94.8702 8.904ZM110.911 12H110.095V8.508C110.095 7.78 109.979 7.244 109.747 6.9C109.515 6.556 109.171 6.384 108.715 6.384C108.475 6.384 108.247 6.428 108.031 6.516C107.823 6.604 107.627 6.728 107.443 6.888C107.267 7.048 107.111 7.24 106.975 7.464C106.839 7.68 106.735 7.92 106.663 8.184V12H105.847V8.508C105.847 7.764 105.735 7.224 105.511 6.888C105.287 6.552 104.943 6.384 104.479 6.384C104.007 6.384 103.587 6.548 103.219 6.876C102.851 7.204 102.587 7.636 102.427 8.172V12H101.611V5.748H102.355V7.164C102.611 6.684 102.947 6.312 103.363 6.048C103.779 5.776 104.239 5.64 104.743 5.64C105.271 5.64 105.691 5.788 106.003 6.084C106.323 6.38 106.519 6.768 106.591 7.248C107.175 6.176 107.979 5.64 109.003 5.64C109.355 5.64 109.651 5.704 109.891 5.832C110.139 5.96 110.335 6.144 110.479 6.384C110.631 6.616 110.739 6.9 110.803 7.236C110.875 7.564 110.911 7.932 110.911 8.34V12ZM115.83 12.12C115.302 12.12 114.834 11.988 114.426 11.724C114.026 11.452 113.702 11.112 113.454 10.704V14.556H112.638V5.748H113.37V6.96C113.626 6.568 113.958 6.252 114.366 6.012C114.774 5.764 115.218 5.64 115.698 5.64C116.13 5.64 116.526 5.732 116.886 5.916C117.246 6.092 117.558 6.332 117.822 6.636C118.086 6.932 118.29 7.276 118.434 7.668C118.586 8.06 118.662 8.464 118.662 8.88C118.662 9.32 118.594 9.736 118.458 10.128C118.322 10.52 118.126 10.864 117.87 11.16C117.622 11.456 117.322 11.692 116.97 11.868C116.626 12.036 116.246 12.12 115.83 12.12ZM115.602 11.4C115.938 11.4 116.242 11.328 116.514 11.184C116.794 11.04 117.03 10.852 117.222 10.62C117.422 10.38 117.574 10.112 117.678 9.816C117.782 9.512 117.834 9.2 117.834 8.88C117.834 8.544 117.774 8.224 117.654 7.92C117.534 7.616 117.37 7.348 117.162 7.116C116.954 6.884 116.706 6.7 116.418 6.564C116.138 6.428 115.834 6.36 115.506 6.36C115.298 6.36 115.078 6.404 114.846 6.492C114.622 6.572 114.41 6.684 114.21 6.828C114.018 6.964 113.85 7.128 113.706 7.32C113.57 7.504 113.486 7.7 113.454 7.908V9.828C113.55 10.052 113.67 10.26 113.814 10.452C113.966 10.644 114.134 10.812 114.318 10.956C114.51 11.092 114.714 11.2 114.93 11.28C115.146 11.36 115.37 11.4 115.602 11.4ZM121.617 12.12C121.321 12.12 121.045 12.072 120.789 11.976C120.541 11.872 120.321 11.732 120.129 11.556C119.945 11.38 119.801 11.176 119.697 10.944C119.593 10.704 119.541 10.448 119.541 10.176C119.541 9.904 119.605 9.652 119.733 9.42C119.861 9.188 120.041 8.988 120.273 8.82C120.505 8.652 120.781 8.524 121.101 8.436C121.421 8.34 121.773 8.292 122.157 8.292C122.477 8.292 122.801 8.32 123.129 8.376C123.457 8.432 123.749 8.512 124.005 8.616V8.052C124.005 7.5 123.849 7.064 123.537 6.744C123.225 6.416 122.793 6.252 122.241 6.252C121.921 6.252 121.593 6.316 121.257 6.444C120.921 6.572 120.581 6.756 120.237 6.996L119.949 6.456C120.757 5.912 121.541 5.64 122.301 5.64C123.085 5.64 123.701 5.86 124.149 6.3C124.597 6.74 124.821 7.348 124.821 8.124V10.944C124.821 11.168 124.921 11.28 125.121 11.28V12C124.985 12.024 124.881 12.036 124.809 12.036C124.601 12.036 124.437 11.984 124.317 11.88C124.205 11.776 124.145 11.632 124.137 11.448L124.113 10.956C123.825 11.332 123.461 11.62 123.021 11.82C122.589 12.02 122.121 12.12 121.617 12.12ZM121.809 11.496C122.233 11.496 122.621 11.416 122.973 11.256C123.333 11.096 123.605 10.884 123.789 10.62C123.861 10.548 123.913 10.472 123.945 10.392C123.985 10.304 124.005 10.224 124.005 10.152V9.132C123.733 9.028 123.449 8.948 123.153 8.892C122.865 8.836 122.569 8.808 122.265 8.808C121.689 8.808 121.221 8.928 120.861 9.168C120.501 9.408 120.321 9.724 120.321 10.116C120.321 10.308 120.357 10.488 120.429 10.656C120.509 10.824 120.613 10.972 120.741 11.1C120.877 11.22 121.037 11.316 121.221 11.388C121.405 11.46 121.601 11.496 121.809 11.496ZM128.66 12.12C128.172 12.12 127.696 12.04 127.232 11.88C126.768 11.72 126.368 11.488 126.032 11.184L126.404 10.632C126.756 10.92 127.112 11.136 127.472 11.28C127.84 11.424 128.232 11.496 128.648 11.496C129.152 11.496 129.552 11.396 129.848 11.196C130.152 10.988 130.304 10.696 130.304 10.32C130.304 10.144 130.264 10 130.184 9.888C130.104 9.768 129.984 9.664 129.824 9.576C129.672 9.488 129.476 9.412 129.236 9.348C129.004 9.276 128.732 9.204 128.42 9.132C128.06 9.044 127.748 8.956 127.484 8.868C127.22 8.78 127 8.68 126.824 8.568C126.656 8.456 126.528 8.32 126.44 8.16C126.36 7.992 126.32 7.784 126.32 7.536C126.32 7.224 126.38 6.948 126.5 6.708C126.628 6.468 126.796 6.272 127.004 6.12C127.22 5.96 127.468 5.84 127.748 5.76C128.036 5.68 128.34 5.64 128.66 5.64C129.14 5.64 129.576 5.72 129.968 5.88C130.36 6.032 130.676 6.236 130.916 6.492L130.52 6.972C130.288 6.732 130.004 6.552 129.668 6.432C129.34 6.312 128.996 6.252 128.636 6.252C128.42 6.252 128.22 6.276 128.036 6.324C127.852 6.364 127.688 6.432 127.544 6.528C127.408 6.624 127.3 6.748 127.22 6.9C127.14 7.044 127.1 7.216 127.1 7.416C127.1 7.584 127.128 7.72 127.184 7.824C127.24 7.928 127.332 8.02 127.46 8.1C127.588 8.172 127.748 8.24 127.94 8.304C128.14 8.36 128.38 8.42 128.66 8.484C129.06 8.58 129.412 8.676 129.716 8.772C130.02 8.868 130.272 8.98 130.472 9.108C130.68 9.236 130.836 9.392 130.94 9.576C131.044 9.76 131.096 9.984 131.096 10.248C131.096 10.824 130.876 11.28 130.436 11.616C129.996 11.952 129.404 12.12 128.66 12.12ZM134.507 12.12C134.019 12.12 133.543 12.04 133.079 11.88C132.615 11.72 132.215 11.488 131.879 11.184L132.251 10.632C132.603 10.92 132.959 11.136 133.319 11.28C133.687 11.424 134.079 11.496 134.495 11.496C134.999 11.496 135.399 11.396 135.695 11.196C135.999 10.988 136.151 10.696 136.151 10.32C136.151 10.144 136.111 10 136.031 9.888C135.951 9.768 135.831 9.664 135.671 9.576C135.519 9.488 135.323 9.412 135.083 9.348C134.851 9.276 134.579 9.204 134.267 9.132C133.907 9.044 133.595 8.956 133.331 8.868C133.067 8.78 132.847 8.68 132.671 8.568C132.503 8.456 132.375 8.32 132.287 8.16C132.207 7.992 132.167 7.784 132.167 7.536C132.167 7.224 132.227 6.948 132.347 6.708C132.475 6.468 132.643 6.272 132.851 6.12C133.067 5.96 133.315 5.84 133.595 5.76C133.883 5.68 134.187 5.64 134.507 5.64C134.987 5.64 135.423 5.72 135.815 5.88C136.207 6.032 136.523 6.236 136.763 6.492L136.367 6.972C136.135 6.732 135.851 6.552 135.515 6.432C135.187 6.312 134.843 6.252 134.483 6.252C134.267 6.252 134.067 6.276 133.883 6.324C133.699 6.364 133.535 6.432 133.391 6.528C133.255 6.624 133.147 6.748 133.067 6.9C132.987 7.044 132.947 7.216 132.947 7.416C132.947 7.584 132.975 7.72 133.031 7.824C133.087 7.928 133.179 8.02 133.307 8.1C133.435 8.172 133.595 8.24 133.787 8.304C133.987 8.36 134.227 8.42 134.507 8.484C134.907 8.58 135.259 8.676 135.563 8.772C135.867 8.868 136.119 8.98 136.319 9.108C136.527 9.236 136.683 9.392 136.787 9.576C136.891 9.76 136.943 9.984 136.943 10.248C136.943 10.824 136.723 11.28 136.283 11.616C135.843 11.952 135.251 12.12 134.507 12.12ZM138.279 12V5.748H139.095V12H138.279ZM138.279 4.44V3.24H139.095V4.44H138.279ZM143.556 12.12C143.1 12.12 142.684 12.036 142.308 11.868C141.932 11.692 141.604 11.456 141.324 11.16C141.052 10.864 140.84 10.52 140.688 10.128C140.536 9.736 140.46 9.324 140.46 8.892C140.46 8.452 140.536 8.036 140.688 7.644C140.848 7.252 141.064 6.908 141.336 6.612C141.616 6.316 141.944 6.08 142.32 5.904C142.696 5.728 143.108 5.64 143.556 5.64C144.004 5.64 144.416 5.728 144.792 5.904C145.176 6.08 145.504 6.316 145.776 6.612C146.056 6.908 146.272 7.252 146.424 7.644C146.584 8.036 146.664 8.452 146.664 8.892C146.664 9.324 146.588 9.736 146.436 10.128C146.284 10.52 146.068 10.864 145.788 11.16C145.516 11.456 145.188 11.692 144.804 11.868C144.428 12.036 144.012 12.12 143.556 12.12ZM141.288 8.904C141.288 9.256 141.348 9.584 141.468 9.888C141.588 10.184 141.748 10.448 141.948 10.68C142.156 10.904 142.396 11.08 142.668 11.208C142.948 11.336 143.244 11.4 143.556 11.4C143.868 11.4 144.16 11.336 144.432 11.208C144.712 11.072 144.956 10.892 145.164 10.668C145.372 10.436 145.536 10.168 145.656 9.864C145.776 9.56 145.836 9.232 145.836 8.88C145.836 8.536 145.776 8.212 145.656 7.908C145.536 7.596 145.372 7.328 145.164 7.104C144.956 6.872 144.712 6.692 144.432 6.564C144.16 6.428 143.868 6.36 143.556 6.36C143.244 6.36 142.952 6.428 142.68 6.564C142.408 6.692 142.168 6.872 141.96 7.104C141.752 7.336 141.588 7.608 141.468 7.92C141.348 8.224 141.288 8.552 141.288 8.904ZM153.285 12H152.469V8.508C152.469 7.764 152.357 7.224 152.133 6.888C151.917 6.552 151.581 6.384 151.125 6.384C150.885 6.384 150.645 6.428 150.405 6.516C150.165 6.604 149.941 6.728 149.733 6.888C149.533 7.048 149.353 7.24 149.193 7.464C149.033 7.68 148.917 7.916 148.845 8.172V12H148.029V5.748H148.773V7.164C149.029 6.708 149.393 6.34 149.865 6.06C150.345 5.78 150.865 5.64 151.425 5.64C151.769 5.64 152.061 5.704 152.301 5.832C152.541 5.96 152.733 6.14 152.877 6.372C153.021 6.604 153.125 6.888 153.189 7.224C153.253 7.56 153.285 7.932 153.285 8.34V12Z" fill="black"/>
<path d="M52 27.704C52 28.3227 51.8773 28.8453 51.632 29.272C51.3867 29.688 51.0613 30.024 50.656 30.28C50.2507 30.536 49.7867 30.7227 49.264 30.84C48.752 30.9467 48.224 31 47.68 31H43.168V19.672H47.68C48.1173 19.672 48.5653 19.72 49.024 19.816C49.4827 19.9013 49.8987 20.056 50.272 20.28C50.6453 20.4933 50.9493 20.7867 51.184 21.16C51.4187 21.5333 51.536 22.008 51.536 22.584C51.536 23.2133 51.3653 23.736 51.024 24.152C50.6827 24.5573 50.2347 24.8507 49.68 25.032V25.064C50 25.1173 50.2987 25.2187 50.576 25.368C50.864 25.5067 51.1093 25.688 51.312 25.912C51.5253 26.136 51.6907 26.3973 51.808 26.696C51.936 26.9947 52 27.3307 52 27.704ZM48.896 22.952C48.896 22.568 48.7467 22.2907 48.448 22.12C48.16 21.9387 47.728 21.848 47.152 21.848H45.808V24.184H47.28C47.792 24.184 48.1867 24.0827 48.464 23.88C48.752 23.6667 48.896 23.3573 48.896 22.952ZM49.264 27.448C49.264 26.9787 49.088 26.6533 48.736 26.472C48.384 26.2907 47.9147 26.2 47.328 26.2H45.808V28.792H47.344C47.5573 28.792 47.776 28.776 48 28.744C48.2347 28.7013 48.4427 28.632 48.624 28.536C48.816 28.44 48.9707 28.3067 49.088 28.136C49.2053 27.9547 49.264 27.7253 49.264 27.448ZM53.8086 31V19.672H56.5606V31H53.8086ZM65.8304 31L61.6224 25.784H61.5904V31H58.9024V19.672H61.5904V24.28H61.6384L65.6864 19.672H69.1104L64.2304 24.888L69.3984 31H65.8304ZM70.2774 31V19.672H77.8934V21.992H72.9174V24.12H77.6214V26.312H72.9174V28.664H78.1814V31H70.2774ZM92.5881 23.16C92.5881 23.8213 92.4655 24.3813 92.2201 24.84C91.9748 25.288 91.6441 25.6507 91.2281 25.928C90.8121 26.2053 90.3321 26.408 89.7881 26.536C89.2441 26.664 88.6788 26.728 88.0921 26.728H86.7321V31H83.9961V19.672H88.1561C88.7748 19.672 89.3508 19.736 89.8841 19.864C90.4281 19.9813 90.8975 20.1787 91.2921 20.456C91.6975 20.7227 92.0121 21.08 92.2361 21.528C92.4708 21.9653 92.5881 22.5093 92.5881 23.16ZM89.8521 23.176C89.8521 22.9093 89.7988 22.6907 89.6921 22.52C89.5855 22.3493 89.4415 22.216 89.2601 22.12C89.0788 22.024 88.8708 21.96 88.6361 21.928C88.4121 21.896 88.1775 21.88 87.9321 21.88H86.7321V24.552H87.8841C88.1401 24.552 88.3855 24.5307 88.6201 24.488C88.8548 24.4453 89.0628 24.3707 89.2441 24.264C89.4361 24.1573 89.5855 24.0187 89.6921 23.848C89.7988 23.6667 89.8521 23.4427 89.8521 23.176ZM100.295 31L97.8465 26.504H96.9185V31H94.2305V19.672H98.5505C99.0945 19.672 99.6225 19.7307 100.135 19.848C100.657 19.9547 101.121 20.1413 101.527 20.408C101.943 20.6747 102.273 21.0267 102.519 21.464C102.764 21.9013 102.887 22.4453 102.887 23.096C102.887 23.864 102.679 24.5093 102.263 25.032C101.847 25.5547 101.271 25.928 100.535 26.152L103.495 31H100.295ZM100.183 23.144C100.183 22.8773 100.124 22.664 100.007 22.504C99.8998 22.3333 99.7558 22.2053 99.5745 22.12C99.4038 22.024 99.2065 21.96 98.9825 21.928C98.7692 21.896 98.5612 21.88 98.3585 21.88H96.9025V24.52H98.1985C98.4225 24.52 98.6518 24.504 98.8865 24.472C99.1212 24.4293 99.3345 24.36 99.5265 24.264C99.7185 24.168 99.8732 24.0293 99.9905 23.848C100.119 23.6667 100.183 23.432 100.183 23.144ZM116.648 25.288C116.648 26.184 116.493 27.0053 116.184 27.752C115.875 28.488 115.443 29.1227 114.888 29.656C114.344 30.1787 113.693 30.584 112.936 30.872C112.179 31.16 111.357 31.304 110.472 31.304C109.587 31.304 108.765 31.16 108.008 30.872C107.261 30.584 106.611 30.1787 106.056 29.656C105.512 29.1227 105.085 28.488 104.776 27.752C104.467 27.0053 104.312 26.184 104.312 25.288C104.312 24.3813 104.467 23.5653 104.776 22.84C105.085 22.104 105.512 21.48 106.056 20.968C106.611 20.456 107.261 20.0613 108.008 19.784C108.765 19.5067 109.587 19.368 110.472 19.368C111.357 19.368 112.179 19.5067 112.936 19.784C113.693 20.0613 114.344 20.456 114.888 20.968C115.443 21.48 115.875 22.104 116.184 22.84C116.493 23.5653 116.648 24.3813 116.648 25.288ZM113.72 25.288C113.72 24.7973 113.64 24.3387 113.48 23.912C113.32 23.4853 113.096 23.1227 112.808 22.824C112.531 22.5147 112.189 22.2747 111.784 22.104C111.389 21.9227 110.952 21.832 110.472 21.832C109.992 21.832 109.555 21.9227 109.16 22.104C108.765 22.2747 108.424 22.5147 108.136 22.824C107.848 23.1227 107.624 23.4853 107.464 23.912C107.315 24.3387 107.24 24.7973 107.24 25.288C107.24 25.8 107.32 26.2747 107.48 26.712C107.64 27.1387 107.859 27.5067 108.136 27.816C108.424 28.1253 108.765 28.3707 109.16 28.552C109.555 28.7227 109.992 28.808 110.472 28.808C110.952 28.808 111.389 28.7227 111.784 28.552C112.179 28.3707 112.52 28.1253 112.808 27.816C113.096 27.5067 113.32 27.1387 113.48 26.712C113.64 26.2747 113.72 25.8 113.72 25.288ZM124.063 27.128C124.063 27.576 124.01 28.0453 123.903 28.536C123.807 29.0267 123.62 29.48 123.343 29.896C123.076 30.3013 122.698 30.6373 122.207 30.904C121.727 31.1707 121.103 31.304 120.335 31.304C119.375 31.304 118.575 31.0587 117.935 30.568C117.295 30.0667 116.868 29.4267 116.655 28.648L119.071 27.832C119.146 28.1307 119.279 28.3707 119.471 28.552C119.674 28.7333 119.919 28.824 120.207 28.824C120.655 28.824 120.948 28.6693 121.087 28.36C121.236 28.0507 121.311 27.6453 121.311 27.144V19.672H124.063V27.128ZM126.34 31V19.672H133.956V21.992H128.98V24.12H133.684V26.312H128.98V28.664H134.244V31H126.34ZM146.027 29.432C145.525 30.008 144.907 30.4667 144.171 30.808C143.435 31.1387 142.587 31.304 141.627 31.304C140.752 31.304 139.941 31.16 139.195 30.872C138.459 30.584 137.819 30.1787 137.275 29.656C136.731 29.1227 136.304 28.488 135.995 27.752C135.685 27.016 135.531 26.2053 135.531 25.32C135.531 24.4133 135.685 23.592 135.995 22.856C136.315 22.12 136.752 21.496 137.307 20.984C137.861 20.4613 138.512 20.0613 139.259 19.784C140.005 19.5067 140.811 19.368 141.675 19.368C142.475 19.368 143.259 19.512 144.027 19.8C144.805 20.0773 145.435 20.488 145.915 21.032L144.059 22.888C143.803 22.536 143.467 22.2747 143.051 22.104C142.635 21.9333 142.208 21.848 141.771 21.848C141.291 21.848 140.848 21.9387 140.443 22.12C140.048 22.2907 139.707 22.5307 139.419 22.84C139.131 23.1493 138.907 23.5173 138.747 23.944C138.587 24.36 138.507 24.8187 138.507 25.32C138.507 25.832 138.587 26.3013 138.747 26.728C138.907 27.1547 139.125 27.5227 139.403 27.832C139.691 28.1307 140.032 28.3653 140.427 28.536C140.821 28.7067 141.253 28.792 141.723 28.792C142.267 28.792 142.741 28.6853 143.147 28.472C143.552 28.2587 143.877 27.9813 144.123 27.64L146.027 29.432ZM151.954 22.008V31H149.218V22.008H146.018V19.672H155.154V22.008H151.954Z" fill="#1A2328"/>
<defs>
<clipPath id="clip0">
<rect width="36" height="36" fill="white"/>
</clipPath>
</defs>
</svg>
