<svg width="191" height="54" viewBox="0 0 191 54" fill="none" xmlns="http://www.w3.org/2000/svg">
<g clip-path="url(#clip0)">
<path fill-rule="evenodd" clip-rule="evenodd" d="M50.1784 13.5209C49.3124 12.2282 48.6577 10.7914 47.5523 9.85822C47.6488 9.85822 47.4729 9.59844 47.4607 9.58121C47.0031 9.05838 46.5451 8.53513 46.0866 8.01148C44.8188 6.87511 43.8172 5.85571 42.4224 4.84123C41.8398 4.41648 41.1545 4.15671 40.5902 3.73319C40.335 3.54113 38.7887 2.71748 38.7887 2.71748C38.4796 2.28411 37.2961 2.07604 36.7122 1.82489C35.5177 1.31026 34.1473 0.910134 32.6816 0.532167C32.2321 0.409051 31.0449 0.182517 30.9411 0.316714C30.6626 0.133271 29.7196 0.0507828 29.5364 0.162819C29.4656 0.0963358 29.4961 0.162819 29.5059 0.0704814L27.1241 0.00892327C26.7418 0.230532 26.147 -0.114193 25.5668 0.0397023C24.79 0.242844 24.2721 0.146813 23.3988 0.162819C23.4159 0.220683 23.4233 0.279779 23.3683 0.255156C23.1753 0.168974 21.9209 0.469378 21.6278 0.562946C21.4299 0.624504 21.1062 0.868274 20.8338 0.839958C20.6428 0.855731 20.4614 0.93103 20.3147 1.05541C19.9349 1.12805 17.6728 1.69562 17.475 1.97878H17.1085C16.7421 2.14376 16.179 2.55743 15.7344 2.74826C15.4059 2.88861 14.6352 3.2715 14.5741 3.48696C14.4984 3.46233 14.5594 3.5005 14.4825 3.4254L11.8564 4.96435C11.4192 5.26352 11.0015 5.79662 10.6045 6.16473C10.0463 6.68551 9.37209 7.07456 8.80291 7.58057C8.0497 8.34881 7.29649 9.11829 6.54329 9.889C6.19518 10.2941 6.05472 10.6757 5.7799 10.997C5.24859 11.6126 4.59024 12.3181 4.2226 12.9977L3.30654 14.1365C3.07202 14.5662 2.83873 14.9983 2.60422 15.4292C1.94466 16.504 1.086 17.9211 0.83317 19.3997C0.536366 21.1344 0.204141 23.044 0.00871491 24.94V27.1253C-0.10732 30.5245 0.985847 34.1429 2.2378 36.8514C2.78377 38.0334 3.2931 39.411 3.94778 40.4526C6.60069 44.6742 9.8692 48.0316 14.2077 50.5173C18.7061 53.0942 24.7644 55.0197 31.277 53.4106C43.5351 50.3795 52.438 42.324 53.8731 28.7873C54.5217 22.6685 52.5845 17.1122 50.1784 13.5209ZM48.1325 17.83C48.4403 17.3535 48.8153 16.9054 49.0485 16.3526C49.6312 16.7441 49.5371 17.7906 49.9646 18.3532C50.1991 18.661 50.2492 19.2852 50.4532 19.7383C51.274 21.5518 51.5891 23.9957 51.583 26.2019C50.8355 26.0098 48.4916 24.7122 48.0409 24.7861C47.1786 24.2123 46.2185 23.3887 45.2316 22.8162C45.3452 22.3336 45.7397 21.9199 45.9645 21.5235C46.6937 20.2357 47.3361 19.0599 48.1325 17.83ZM46.2393 11.4895C46.6448 12.3969 47.4864 13.1799 47.9187 13.9518C47.8284 14.1328 47.6097 14.2128 47.4912 14.3827C47.5206 14.9368 48.0836 15.6508 47.8882 16.2295C47.7819 16.5434 47.3593 16.781 47.2164 17.0605C46.5349 18.3828 45.3623 19.3899 44.3461 20.5386L43.2163 21.8005L41.5674 22.4469C41.0312 22.5934 40.1847 22.2105 39.7047 22.0775C38.2073 21.6601 36.5926 21.7993 35.3076 21.1541H35.2466C35.2368 19.0218 36.06 17.031 36.0099 14.9675C36.4472 14.4332 36.8849 13.8997 37.323 13.367L39.0024 12.6899L44.0713 10.72C44.7345 10.9663 45.1168 11.3922 45.6591 11.7357C45.9657 11.7037 45.9828 11.5486 46.2393 11.4895ZM37.9337 32.173C37.8482 32.1029 37.715 32.1238 37.5978 32.1115C36.8124 32.6126 37.0677 33.5224 37.2924 34.3891C37.6222 34.5553 37.9911 34.4162 38.3612 34.4507L38.4222 34.4815V34.8508C36.9016 34.5689 34.918 34.9296 33.6587 34.3891C33.6184 34.0703 33.5769 33.7526 33.5366 33.435C34.1729 32.9425 34.8862 32.0942 35.3076 31.4036C35.5307 30.9932 35.7547 30.5828 35.9794 30.1724C36.2237 29.9372 36.5657 30.0357 36.926 29.8954C37.6088 29.9791 38.476 32.2001 38.636 32.7271C38.7276 33.0299 38.967 33.4264 38.7887 33.8043L38.7276 33.8967L38.5138 33.7735C38.5627 33.0829 38.4638 32.434 37.9337 32.173ZM32.6816 34.4199C32.7634 34.1638 33.0199 34.0592 33.1701 33.8659C33.2471 33.9373 33.2288 34.0998 33.1701 34.266C33.1982 34.4876 32.8892 34.4458 32.6816 34.4199ZM33.1091 32.6655H33.048C32.5081 32.0811 31.9687 31.4963 31.4296 30.9111C31.2415 30.7621 31.3197 30.7584 31.4296 30.5725C31.9011 30.7252 33.0932 31.9539 33.4144 32.3577L33.1091 32.6655ZM28.4677 38.6059C28.2906 39.3445 28.944 39.954 29.6586 39.9909L29.7502 40.2371V40.2679C28.9037 40.4575 26.9861 38.0777 26.5745 37.467C26.7333 37.0977 26.8481 36.6643 27.1852 36.4821L28.5898 36.2051C29.4155 35.9847 30.4501 35.6548 31.0937 35.1894L31.9182 35.5587C32.1405 35.8123 31.8364 36.5757 31.7655 36.8514C31.4398 38.0005 31.1141 39.1496 30.7884 40.2987C30.2241 40.0993 30.6382 39.5538 30.7578 39.0368C30.2583 38.4396 29.087 37.7957 28.4677 38.6059ZM21.8721 37.1592C21.3908 36.4378 20.3746 36.8613 19.7346 37.1285C19.7138 37.4867 19.6943 37.8462 19.6735 38.2057L19.643 38.2981L19.3376 38.3288C19.3547 37.3562 19.323 34.3633 19.7651 33.5581C19.8873 33.3845 20.4467 33.4128 20.6812 33.3734C21.3664 33.8893 21.9148 34.6046 22.6354 35.097C23.0361 35.3704 23.7347 35.5661 24.0095 35.8665C24.2318 36.1127 24.2538 36.535 24.2538 37.0053C23.7408 37.7022 21.3224 38.7893 20.3147 38.6982V38.5443C20.8546 38.1749 21.6241 38.5985 21.9942 37.744C22.0968 37.5003 21.9624 37.2947 21.8721 37.1592ZM15.5512 28.3257C14.7573 27.9563 14.3298 29.1013 14.1771 29.5568L13.9634 29.6184H13.9329C13.7777 28.6334 16.1094 26.895 16.7421 26.3558C18.1138 26.6944 17.8121 27.9391 18.2383 29.2182C18.4924 29.8125 18.7469 30.4075 19.0017 31.0034C18.8918 31.2152 18.766 31.6633 18.5742 31.8037C18.2078 31.9083 17.6056 31.6375 17.2612 31.5574C16.132 31.314 15.0201 30.9952 13.9329 30.6033L13.9634 30.4186C14.2602 30.245 14.783 30.5184 15.1543 30.6341C15.6343 30.2475 16.5882 28.7836 15.5512 28.3257ZM15.765 20.6617C15.8627 21.2083 16.1314 21.5456 16.62 21.7082C17.7534 21.5986 17.3614 20.2086 17.1391 19.4613C16.7861 19.2705 16.3793 19.4034 15.9482 19.3382V18.9688C17.2685 18.9959 18.4521 19.039 19.6735 19.2458L20.6506 19.3689C20.8241 19.4748 20.7972 20.1076 20.8338 20.3847C20.2048 20.8205 19.5123 21.7094 19.0933 22.3545C18.7648 22.8593 18.6365 23.5278 18.1162 23.8319C17.8463 23.9883 17.4798 23.9009 17.2307 23.955C16.8459 23.4699 15.1347 20.8463 15.5207 20.0153L15.5512 19.923L15.7344 19.9845C15.8285 20.1729 15.7051 20.328 15.765 20.6617ZM21.3224 21.1541C21.629 21.3006 22.8834 22.6857 23.0324 23.0009C23.0715 23.108 23.0006 23.1117 22.9408 23.2779C22.3838 22.8605 21.3004 21.9852 20.9865 21.4311L21.3224 21.1541ZM21.2919 19.3689H21.6888L21.7194 19.4305L21.2003 19.923C21.1836 19.7334 21.2152 19.5428 21.2919 19.3689ZM25.8111 15.3061C25.9797 14.5908 25.3067 13.9518 24.6813 13.9518C24.6204 13.9153 24.5745 13.8579 24.5521 13.7901C24.5297 13.7222 24.5322 13.6486 24.5592 13.5825C25.9736 14.0035 26.809 15.3751 27.6738 16.3834C27.8094 17.8078 25.7708 17.6367 24.7729 18.0454L23.1851 18.7226L22.4522 18.384C22.2495 18.0331 22.4718 17.4434 22.5744 17.0605C22.8834 15.9118 23.124 14.6979 23.521 13.6133L23.7652 13.7364L23.8569 13.7979C23.8178 14.1821 23.6407 14.4455 23.521 14.7829C24.0266 15.4859 25.0526 16.0596 25.8111 15.3061ZM27.8265 18.2301H28.0402C28.144 18.2117 28.1135 18.2055 28.1929 18.2609C28.1017 19.1523 28.0101 20.0449 27.9181 20.9387H27.7348L27.8265 18.2301ZM27.7348 17.4299C27.8167 17.3166 27.8973 17.2033 27.9791 17.0913L28.3761 17.3375L28.4677 17.4606L27.7654 17.4914L27.7348 17.4299ZM27.9486 21.7389C29.0186 21.7783 30.7969 23.2163 31.277 23.9242C31.6067 24.4069 31.7655 25.0089 31.9793 25.5863C32.1503 26.0394 32.4471 27.1868 32.2846 27.7716C31.7961 29.5334 30.4439 30.8261 28.8647 31.5267C28.3761 31.7446 27.0447 32.3651 26.2691 32.1423C23.6309 31.3826 20.8241 27.4946 22.8186 24.5398C23.6016 23.3788 24.6984 22.5355 26.147 22.0467L27.9486 21.7389ZM34.758 16.7527C34.7678 16.3932 34.7787 16.0337 34.7885 15.6755L34.8496 15.6139H35.0939C35.216 16.163 34.94 19.934 34.6969 20.4154C34.5613 20.5533 34.0483 20.5386 33.8419 20.5693C33.1396 19.9808 32.4984 19.1904 31.7044 18.7226C31.3295 18.5022 30.7957 18.3889 30.5136 18.0762C30.3169 17.8583 30.1618 17.3117 30.2693 16.9066C30.6467 16.1765 32.844 15.5129 33.7198 15.1522L34.1167 15.2138L34.2083 15.3369L34.0557 15.4908C33.219 15.7284 32.8562 15.4132 32.4678 16.2603C32.4813 17.5653 34.0862 17.127 34.758 16.7527ZM32.0098 23.8319C32.1319 23.4281 33.6917 22.7793 34.0557 22.4161C34.1521 22.4855 34.2263 22.5818 34.2694 22.6931L32.0709 23.955V23.8935C32.0501 23.8725 32.0306 23.8516 32.0098 23.8319ZM32.6816 20.6617C32.7601 20.6961 32.8306 20.7467 32.8885 20.8103C32.9464 20.874 32.9903 20.9492 33.0175 21.031L31.2159 22.7546H31.1853L30.9716 22.6315C31.1695 21.9864 32.2626 21.2206 32.6816 20.6617ZM30.2693 21.9852L29.9945 21.8928L29.9639 21.8313C30.3963 21.0421 31.0217 20.3465 31.6128 19.7075L31.9182 19.7999L32.0098 19.9537C31.7423 20.1003 30.4488 21.5567 30.2693 21.9852ZM33.4144 21.5543L33.6587 21.7697C33.4144 22.3324 32.193 22.8371 31.7655 23.3394H31.7044L31.5823 23.2471L31.5518 23.1548L33.4144 21.5543ZM34.5442 23.3087H34.6358C34.7067 23.4515 34.7787 23.5955 34.8496 23.7396C34.0557 24.0769 33.2617 24.4155 32.4678 24.7553H32.4373C32.4165 24.6728 32.397 24.5903 32.3762 24.509C32.9332 23.9661 33.8737 23.7248 34.5442 23.3087ZM34.2694 21.0002L34.7885 21.031C34.7787 21.1431 34.7678 21.2563 34.758 21.3696V21.4311L34.2694 21.0002ZM32.59 28.7566C33.445 29.1825 34.278 29.5593 35.0633 30.0185C35.023 30.1305 34.9815 30.2438 34.9412 30.3571L34.8801 30.4494L32.5594 29.0951C32.5045 28.9499 32.5484 28.9412 32.59 28.7566ZM32.9564 28.2333L35.6435 28.8489L35.5519 29.1875C35.3052 29.3192 32.9552 28.3934 32.9564 28.2333ZM33.0785 27.4946L33.048 27.3099L33.1701 27.2484L35.7962 27.3715C35.8215 27.4255 35.8321 27.4854 35.8267 27.545C35.8213 27.6045 35.8003 27.6615 35.7657 27.7101C35.58 27.8615 33.5573 27.4995 33.0785 27.4946ZM32.8953 26.8175C32.8856 26.7251 32.8746 26.6328 32.8648 26.5405L35.5519 25.9557C35.6215 26.0455 35.6313 26.3053 35.6435 26.4481L32.8953 26.8175ZM35.3382 25.0631C35.0475 25.3549 33.357 25.9089 32.8037 25.9249C32.7939 25.8215 32.783 25.7193 32.7732 25.6171C33.5488 25.4029 34.6273 25.084 35.2466 24.6322L35.3687 24.7245C35.3589 24.8365 35.3479 24.9498 35.3382 25.0631ZM35.0939 22.1083L34.8191 21.585H35.1855L35.216 21.6466C35.1769 21.8005 35.1342 21.9544 35.0939 22.1083ZM30.422 19.0304L30.8495 19.2151L29.4448 21.4927C29.3496 21.5764 29.33 21.5284 29.2005 21.4927C29.3593 20.5779 30.047 19.7912 30.422 19.0304ZM29.2616 18.384L29.5975 18.5379C29.3386 19.1646 29.1602 20.8057 28.6814 21.1234L28.5898 21.0618C28.8138 20.1696 29.0377 19.277 29.2616 18.384ZM29.2311 17.6145V17.553L29.6891 17.3683C29.8369 17.4582 29.9236 17.729 29.9945 17.8916L29.2311 17.6145ZM29.1395 32.2346L29.2922 32.173H29.3838L30.6052 34.4507L30.1471 34.6661C29.8748 33.8646 29.2445 33.1358 29.1395 32.2346ZM29.3227 35.1586L28.9257 35.2817C28.5972 34.9407 28.0622 33.2737 28.0097 32.6655L28.0707 32.6039H28.315L29.3227 35.1586ZM29.9029 31.8652L30.0861 31.7421C30.3304 31.8652 31.4406 33.4928 31.5212 33.8043L31.1548 34.0813C30.7371 33.3426 30.3198 32.6039 29.9029 31.8652ZM27.857 35.4664L27.4295 35.5895C27.2414 34.7892 27.2805 33.8277 27.0631 32.9425V32.7886L27.1852 32.7578H27.3379C27.5154 33.6607 27.6884 34.5635 27.857 35.4664ZM26.4524 35.7126L26.2081 35.7434H26.1775C25.9894 35.2866 26.3143 33.499 26.4218 32.9425H26.5745C26.7492 33.3845 26.5403 35.0478 26.4524 35.7126ZM21.2919 26.2019L21.3224 26.2635L21.2919 26.3558C20.669 26.5676 19.4732 26.1613 18.6048 26.2942C18.537 26.184 18.515 26.0513 18.5437 25.9249L21.2919 26.2019ZM18.7574 24.9707C18.7782 24.8575 18.7978 24.7442 18.8185 24.6322L21.414 25.4016C21.4238 25.473 21.4348 25.5445 21.4446 25.6171L18.788 25.0015L18.7574 24.9707ZM20.4369 26.9406L21.3835 26.8483C21.4726 26.9209 21.4873 26.9714 21.5056 27.1253L18.7269 27.6793C18.7171 27.5352 18.7061 27.3912 18.6964 27.2484L20.4369 26.9406ZM20.2537 24.3859L19.3071 23.8319L19.4598 23.401L21.811 24.7553L21.8721 24.8476C21.8242 24.9107 21.7928 24.9847 21.7804 25.0631L20.2537 24.3859ZM21.8415 28.9412C21.9637 28.9979 21.9637 29.041 21.9942 29.1875C21.822 29.3857 20.0619 30.2955 19.7346 30.3878C19.6112 30.2729 19.5259 30.1224 19.4903 29.9569C20.2744 29.6188 21.0582 29.2802 21.8415 28.9412ZM19.7346 32.45L20.1926 32.8809V32.9425L19.7346 32.9117V32.45ZM20.0705 30.9726L22.2385 29.7107C22.2898 29.792 22.3399 29.8745 22.3912 29.9569L20.2842 31.2804C20.2134 31.177 20.1413 31.0748 20.0705 30.9726ZM22.6965 30.4802C22.7783 30.5614 22.859 30.6439 22.9408 30.7264L21.1087 32.3269V32.3885L20.8949 32.1423L20.8338 32.0191C21.2626 31.8111 22.4742 30.8852 22.6965 30.4802ZM23.3072 31.1573L23.521 31.2497L23.5515 31.342L21.8721 33.1887L21.7804 33.2503L21.5362 32.9733L21.4751 32.8502L23.3072 31.1573ZM24.2233 31.9268L24.437 32.0191H24.4981C24.139 32.8809 23.3793 33.3833 22.9408 34.1429L22.666 34.1737C22.3386 33.8314 23.9265 32.4242 24.2233 31.9268ZM25.2309 21.6158L25.2004 21.6774L25.0172 21.7389C24.7155 21.5087 24.0083 19.9254 23.7652 19.4921L24.1317 19.2458C24.4737 19.4317 25.0294 21.1504 25.2309 21.6158ZM25.0172 18.7534L25.3836 18.6302C25.6474 18.8223 26.2838 20.7491 26.2997 21.2465L26.0249 21.308L25.0172 18.7534ZM24.4676 21.9544V21.9852L24.1927 22.1391L22.8186 20.0769L23.124 19.8306H23.2461L24.4676 21.9544ZM26.4829 18.4148L26.8188 18.4456L26.9104 18.4148C27.1339 19.3185 27.0325 20.1384 27.2768 21.0618C27.2402 21.096 27.1967 21.122 27.1493 21.1379C27.1019 21.1538 27.0517 21.1594 27.002 21.1541C26.8286 20.2406 26.6555 19.3275 26.4829 18.4148ZM22.666 18.938L22.1163 19.2151H22.0247L22.1774 18.7534L22.666 18.938ZM22.1774 20.4462H22.2995C22.7783 21.1119 23.2567 21.7787 23.7347 22.4469L23.5515 22.6315H23.4904L21.8721 20.754L22.1774 20.4462ZM22.2995 23.8627C22.346 24.0104 22.28 23.9686 22.2385 24.1705C21.3566 23.8233 20.7728 23.0218 20.0399 22.5084L20.0094 22.4161L20.2537 22.1083L22.2995 23.8627ZM17.7192 24.4167L18.2078 24.2013C18.126 24.4573 18.0454 24.7134 17.9635 24.9707L17.9025 25.0015L17.7192 24.4167ZM17.8414 26.4481L17.475 26.1403L17.4444 26.0172L17.7803 25.6171C17.8011 25.8941 17.8206 26.1711 17.8414 26.4481ZM18.9101 28.7873C18.9309 28.7356 18.9504 28.6839 18.9712 28.6334C19.726 28.2641 20.6604 28.1668 21.4446 27.7716L21.5667 27.864L21.5972 27.9563V28.0794C20.6934 28.2776 19.8665 28.7172 19.0323 29.0951C18.992 28.9917 18.9504 28.8895 18.9101 28.7873ZM19.246 31.5882L19.5819 32.173V32.2038L19.2155 32.0807H19.1544L19.246 31.5882ZM24.1011 34.9124L23.6736 34.7585C24.1524 33.9582 24.6308 33.158 25.1088 32.3577L25.292 32.4193C25.3592 33.0213 24.3283 34.3325 24.1011 34.9124ZM25.2004 35.5587L24.9256 35.4356C25.0893 34.5504 25.3592 33.5495 25.7195 32.7886L25.9027 32.8809C25.6169 33.6381 25.6413 35.0109 25.2004 35.5587ZM25.2615 36.3282V36.359L24.7424 36.5437C24.6605 36.3688 24.5799 36.194 24.4981 36.0204L25.2615 36.3282ZM26.5134 36.4205H26.6356L26.3302 36.7899L26.2386 36.8514L25.8417 36.5437L25.8111 36.4821L26.5134 36.4205ZM31.6739 35.0047L32.2235 34.6661H32.3152C32.3213 34.8003 32.2777 34.9319 32.193 35.0355L32.1625 35.1278L31.6739 35.0047ZM32.1319 33.3734L30.6052 31.4036L30.8495 31.1881C31.2733 31.4023 32.2333 32.6655 32.5289 33.0964L32.1319 33.3734ZM32.0403 29.9262L32.1625 29.6491C33.0346 29.9766 33.5256 30.9062 34.3305 31.2804L34.3916 31.3728L34.1473 31.7421L32.0403 29.9262ZM36.1931 29.5876C36.264 29.3414 36.3361 29.0951 36.4069 28.8489C36.5168 28.9425 36.6231 29.2736 36.6512 29.4337C36.4958 29.4589 36.349 29.5223 36.2237 29.6184L36.1931 29.5876ZM36.6817 27.9563L36.5596 28.0486C36.5388 27.7716 36.5193 27.4946 36.4985 27.2176L36.926 27.6177C36.8442 27.7298 36.7648 27.843 36.6817 27.9563ZM35.9183 24.0474C35.7253 23.605 35.532 23.1638 35.3382 22.7239L35.674 21.8928C37.428 21.9445 38.785 22.8347 40.3154 23.0932L40.346 23.2471L40.3154 23.3087C40.0711 23.4724 39.5081 23.1695 39.1856 23.0624C38.6824 23.6571 37.9752 24.2296 38.5749 25.217C39.2797 25.7513 40.0272 24.8476 40.1017 24.1397L40.3154 24.0474L40.3765 24.0781C40.5157 25.1049 38.2525 26.7535 37.5978 27.3099C36.2041 27.124 36.3385 25.1837 35.9183 24.0474ZM42.117 7.58057C42.7912 8.16291 43.9235 8.68862 44.3156 9.51965H44.3766L42.8193 9.889C42.2672 10.0687 41.6736 10.038 41.0483 10.2276C40.6025 10.3618 39.9673 10.7336 39.4299 10.72C38.785 10.7028 37.7956 10.9047 37.1703 11.1202H36.9871C36.7029 10.0318 36.4179 8.94429 36.1321 7.85758C36.0612 6.55419 35.99 5.25121 35.9183 3.94864C38.2305 4.54329 40.429 6.11302 42.117 7.58057ZM27.6127 2.74826C27.9681 2.2878 28.7914 3.08313 29.3838 2.07112C30.29 2.19424 30.6198 2.01202 31.5212 2.25579L33.445 2.80982C33.5573 3.0659 33.6685 3.32198 33.7809 3.57929C34.1119 3.6864 34.6102 3.82553 34.9107 3.91786C35.3382 5.32262 34.8117 6.55009 35.0939 8.07304C35.1036 8.44238 35.1146 8.81173 35.1244 9.18108C35.2254 10.0839 35.3272 10.9868 35.4298 11.8896C35.4371 12.2762 35.2661 12.4486 35.2771 12.6899C34.2022 14.3926 32.6242 14.6856 30.8495 15.7062L29.0173 16.9374C28.5695 16.3317 28.1216 15.7263 27.6738 15.1214C26.8444 14.0417 25.5009 13.2525 24.8645 12.0128C24.7424 11.7665 24.481 10.3975 24.5897 10.1045C25.0697 8.80435 25.8331 7.50916 26.3302 6.22629C26.7895 5.03822 26.925 3.8009 27.6127 2.74826ZM18.4521 4.13332C20.0741 3.45125 21.8317 3.04989 23.3072 2.62514L25.7806 2.31735H25.8111C25.893 2.38999 26.3412 2.37275 26.5134 2.34813L26.5745 2.37891C26.2178 3.36384 25.8184 4.44234 25.4142 5.14902L24.9561 6.22629C24.4957 6.83079 23.5173 8.06442 23.2767 8.78095C22.7466 8.81173 22.1151 8.21216 21.6888 7.9807C20.338 7.242 19.2033 6.5033 17.933 5.76461C17.4957 5.50976 17.1415 5.08624 16.5589 4.96435C16.6884 4.64055 18.0515 4.30075 18.4521 4.13332ZM11.8564 8.22693C11.8284 7.9807 11.7343 7.93514 11.6427 7.76524L12.6809 6.96499L12.9557 6.59564C13.476 6.30016 14.0012 6.17335 14.452 5.82616L14.8794 6.22629C17.3882 5.28445 17.4615 6.99823 19.0628 7.94992C19.897 8.44238 20.8522 9.48518 21.7194 10.166L22.2995 10.5969C22.4327 10.7939 22.9481 12.3021 22.8797 12.5976C22.6208 13.7155 22.3276 15.0439 22.0247 16.1371C21.7878 16.9891 21.8476 17.8374 21.4446 18.5687C21.3395 18.7004 20.4491 18.6229 20.1621 18.5687L16.5589 18.107C13.5054 18.2646 13.3111 15.8909 12.4672 13.7364C11.9969 12.536 11.3056 11.1977 11.0015 9.85822C10.8549 9.21309 11.6451 8.63075 11.8564 8.22693ZM5.01652 15.7062C5.93258 13.8238 7.51065 11.9266 8.86398 10.443C9.25076 10.0737 9.63754 9.70432 10.0243 9.33498C10.1049 9.51226 10.0121 9.65385 10.0549 9.85822C10.1978 10.4418 10.3394 11.0278 10.4824 11.6126C10.5227 11.9918 10.5642 12.371 10.6045 12.7515C10.9807 13.9087 11.4729 15.7358 11.4289 17.0297L7.88684 17.8608L4.00885 17.9531C3.97954 17.489 4.78811 16.1753 5.01652 15.7062ZM2.17673 24.6014C2.49796 23.4933 2.19261 21.5998 2.78743 20.6001L3.45921 20.3231L3.82564 19.1535C4.51329 18.8112 5.80189 19.0895 6.7265 19.0612C7.86608 19.0255 9.20109 19.1239 10.5129 18.9073L11.9175 18.7841C14.0953 18.762 14.6987 21.1849 15.4902 22.6315L17.2307 25.2477L16.4673 25.7402C16.0194 26.1079 15.5716 26.4773 15.1237 26.8483C14.1759 27.6177 13.4052 28.8464 12.2839 29.4029C12.0763 29.5051 10.712 29.7649 10.4213 29.6799L8.03952 28.5103C6.95002 28.0179 5.82143 27.7064 4.65009 27.2792L2.78743 26.4481C2.73858 26.0024 2.78011 25.6947 2.78743 25.1862L2.17673 24.6014ZM5.13866 37.3439L5.07759 37.3747C4.17731 35.3701 3.42213 33.3025 2.81797 31.1881C2.48697 30.0567 2.66041 28.743 2.45155 27.4638C3.08424 27.4872 3.60578 27.8984 4.10046 28.1102C4.81865 28.4168 5.56615 28.5793 6.2074 28.972L8.95558 30.8188C8.84443 31.3112 8.45602 31.7384 8.22273 32.1423C7.43126 33.5051 6.66909 34.6846 5.90204 36.0512C5.66265 36.4772 5.28401 36.8108 5.13866 37.3439ZM18.5742 50.0864C17.9635 49.9916 17.3846 49.6309 16.8948 49.3785C15.9177 48.8725 15.0272 48.4502 14.1771 47.8396L12.4061 46.393C11.9505 46.0999 10.3211 44.998 10.2075 44.5154L10.1159 44.4231L11.0015 44.3C12.2644 43.9306 13.7777 43.6142 15.0627 43.315L17.2917 42.8841H17.5055C18.2776 45.2033 18.6393 47.6411 18.5742 50.0864ZM18.4216 39.0675C17.6704 40.9143 14.6498 41.7589 12.742 42.5148C12.3023 42.6884 11.8186 42.7364 11.3373 42.9149L10.4213 43.2843C9.6811 43.3594 9.25239 42.2796 8.65023 42.2686C8.6258 42.2132 8.43648 42.4015 8.31434 42.4532C8.12136 42.548 7.89173 42.0506 7.7647 41.8684C7.30545 41.2048 6.58604 40.6053 6.299 39.8062L6.7265 39.4061C6.56039 38.937 6.11579 38.0838 6.299 37.4978L7.00132 36.5744C7.68897 35.3519 8.77359 34.3399 9.7495 33.3119L11.032 31.8652L12.742 31.2497L19.1849 32.6039C19.3608 33.3513 18.9516 35.0552 18.788 35.805L18.4216 39.0675ZM25.4447 51.256L24.9867 51.8101C23.9998 52.2644 22.0333 51.405 21.0781 51.256L20.8033 50.5173L19.6735 50.148C19.3071 49.4093 19.4695 47.2215 19.5208 46.4545L19.246 42.6995C19.2057 42.4114 19.1642 42.1245 19.1239 41.8377C19.4903 39.299 23.9375 38.7597 25.3531 37.0361L27.002 39.1907C27.7348 39.9651 29.1834 41.094 29.4754 42.1147C29.5816 42.484 29.8479 43.2079 29.7196 43.6536C29.3337 44.9882 28.4787 46.1787 28.0097 47.5318C27.6567 48.5499 27.2768 50.6097 26.605 51.256H25.4447ZM35.6435 49.7171C33.4071 50.7759 30.4855 51.6734 27.6738 51.5946L27.6432 51.5638C27.8362 51.1124 28.0296 50.661 28.2234 50.2096C28.679 49.1557 28.9844 48.1424 29.567 47.2548L30.9716 45.131C31.4602 45.28 31.8779 45.5964 32.2846 45.8389C33.4718 46.5456 34.5296 47.1477 35.674 47.8703C36.2164 48.2126 36.7965 48.8294 37.5062 48.9476C37.0799 49.3785 36.22 49.4438 35.6435 49.7171ZM42.6056 45.8389C42.0669 46.5173 40.484 47.5047 39.6742 47.9627C39.5435 47.8396 39.502 47.6795 39.3383 47.5933C39.1099 47.4788 38.0155 47.9036 37.5978 47.9011C36.3959 47.0652 35.4469 45.9547 34.3 45.0695C33.0785 44.1252 31.6922 43.416 31.4296 41.4991C31.9394 39.3651 32.4483 37.2311 32.9564 35.097C34.471 35.3913 35.8524 35.3987 37.2619 35.6511L39.3688 35.805C41.3487 36.6397 41.6749 39.5255 42.4224 41.5606C42.674 42.2464 43.1882 43.0442 43.2774 43.8383C43.347 44.4539 42.6117 44.9045 42.4224 45.3465C42.3637 45.5311 42.5213 45.6961 42.6056 45.8389ZM46.1782 41.8684C45.7031 42.5197 44.8518 43.9109 44.1934 44.3C44.1531 44.002 44.1116 43.7041 44.0713 43.4074L43.7049 42.0223C43.6645 41.6628 43.623 41.3033 43.5827 40.9451C43.3836 40.1805 43.0941 39.2522 43.0025 38.3596C42.9427 37.7871 42.6679 37.0989 42.8193 36.6052C44.0407 36.5732 45.0899 35.9478 46.2698 35.7742L49.7509 35.6203L49.9646 35.6511C49.3563 38.1429 47.4583 40.1091 46.1782 41.8684ZM51.125 33.0348L50.3921 33.3734C50.2981 33.6369 50.0428 34.3054 49.9951 34.6046C49.7044 34.4618 48.9985 34.74 48.9875 34.7277C48.461 34.7141 45.6603 34.3522 44.7736 34.7892C44.8139 34.6908 43.9455 34.7437 43.6132 34.82C42.2123 35.1389 41.5161 34.9321 40.407 34.1737C39.8244 33.7748 39.629 32.7074 39.2467 31.9576C38.8591 31.2804 38.4723 30.6033 38.0863 29.9262C37.7871 29.4005 37.2631 29.0964 37.0481 28.4488L38.1779 27.6793L39.6131 26.4481C40.4131 25.7808 41.0788 24.5484 42.117 24.1705L43.7354 23.8935C45.2109 24.6322 46.7889 25.2662 48.3157 25.9557L49.9951 26.5097L51.1555 27.0637C51.3534 27.3764 51.2544 27.9932 51.2166 28.3257C51.385 28.5462 51.5919 28.734 51.8273 28.8797C51.8151 30.4642 51.3094 31.688 51.125 33.0348Z" fill="#231F20"/>
</g>
<path d="M64.984 11.13H65.908L67.308 14.658L68.722 11.13H69.66L67.924 15.372L69.828 19.866L73.426 11.06H74.49L70.276 21H69.408L67.322 16.086L65.222 21H64.368L60.168 11.06H61.218L64.83 19.866L66.72 15.372L64.984 11.13ZM76.8293 21.14C76.484 21.14 76.162 21.084 75.8633 20.972C75.574 20.8507 75.3173 20.6873 75.0933 20.482C74.8786 20.2767 74.7106 20.0387 74.5893 19.768C74.468 19.488 74.4073 19.1893 74.4073 18.872C74.4073 18.5547 74.482 18.2607 74.6313 17.99C74.7806 17.7193 74.9906 17.486 75.2613 17.29C75.532 17.094 75.854 16.9447 76.2273 16.842C76.6006 16.73 77.0113 16.674 77.4593 16.674C77.8326 16.674 78.2106 16.7067 78.5933 16.772C78.976 16.8373 79.3166 16.9307 79.6153 17.052V16.394C79.6153 15.75 79.4333 15.2413 79.0693 14.868C78.7053 14.4853 78.2013 14.294 77.5573 14.294C77.184 14.294 76.8013 14.3687 76.4093 14.518C76.0173 14.6673 75.6206 14.882 75.2193 15.162L74.8833 14.532C75.826 13.8973 76.7406 13.58 77.6273 13.58C78.542 13.58 79.2606 13.8367 79.7833 14.35C80.306 14.8633 80.5673 15.5727 80.5673 16.478V19.768C80.5673 20.0293 80.684 20.16 80.9173 20.16V21C80.7586 21.028 80.6373 21.042 80.5533 21.042C80.3106 21.042 80.1193 20.9813 79.9793 20.86C79.8486 20.7387 79.7786 20.5707 79.7693 20.356L79.7413 19.782C79.4053 20.2207 78.9806 20.5567 78.4673 20.79C77.9633 21.0233 77.4173 21.14 76.8293 21.14ZM77.0533 20.412C77.548 20.412 78.0006 20.3187 78.4113 20.132C78.8313 19.9453 79.1486 19.698 79.3633 19.39C79.4473 19.306 79.508 19.2173 79.5453 19.124C79.592 19.0213 79.6153 18.928 79.6153 18.844V17.654C79.298 17.5327 78.9666 17.4393 78.6213 17.374C78.2853 17.3087 77.94 17.276 77.5853 17.276C76.9133 17.276 76.3673 17.416 75.9473 17.696C75.5273 17.976 75.3173 18.3447 75.3173 18.802C75.3173 19.026 75.3593 19.236 75.4433 19.432C75.5366 19.628 75.658 19.8007 75.8073 19.95C75.966 20.09 76.1526 20.202 76.3673 20.286C76.582 20.37 76.8106 20.412 77.0533 20.412ZM82.8665 23.24C82.9412 23.2493 83.0112 23.254 83.0765 23.254C83.1512 23.2633 83.2212 23.268 83.2865 23.268C83.4545 23.268 83.5852 23.2447 83.6785 23.198C83.7812 23.1513 83.8792 23.0487 83.9725 22.89C84.0658 22.7313 84.1685 22.5027 84.2805 22.204C84.4018 21.9053 84.5698 21.504 84.7845 21L81.6065 13.706H82.5865L85.2885 20.118L87.7945 13.706H88.7045L84.9245 23.114C84.8218 23.3847 84.6492 23.618 84.4065 23.814C84.1732 24.0193 83.8512 24.122 83.4405 24.122C83.3472 24.122 83.2585 24.1173 83.1745 24.108C83.0905 24.108 82.9878 24.0987 82.8665 24.08V23.24ZM97.4199 21.07C96.7293 21.07 96.0946 20.93 95.5159 20.65C94.9466 20.3607 94.4566 19.9827 94.0459 19.516C93.6353 19.04 93.3179 18.4987 93.0939 17.892C92.8699 17.2853 92.7579 16.6647 92.7579 16.03C92.7579 15.3673 92.8746 14.7327 93.1079 14.126C93.3506 13.5193 93.6819 12.9827 94.1019 12.516C94.5219 12.0493 95.0166 11.6807 95.5859 11.41C96.1553 11.13 96.7713 10.99 97.4339 10.99C98.1246 10.99 98.7546 11.1393 99.3239 11.438C99.9026 11.7273 100.393 12.11 100.794 12.586C101.205 13.062 101.522 13.6033 101.746 14.21C101.97 14.8073 102.082 15.4187 102.082 16.044C102.082 16.7067 101.961 17.3413 101.718 17.948C101.485 18.5547 101.158 19.0913 100.738 19.558C100.327 20.0153 99.8373 20.384 99.2679 20.664C98.6986 20.9347 98.0826 21.07 97.4199 21.07ZM93.7379 16.03C93.7379 16.5713 93.8266 17.094 94.0039 17.598C94.1813 18.0927 94.4333 18.536 94.7599 18.928C95.0866 19.3107 95.4739 19.6187 95.9219 19.852C96.3699 20.076 96.8693 20.188 97.4199 20.188C97.9799 20.188 98.4886 20.0667 98.9459 19.824C99.4033 19.5813 99.7906 19.264 100.108 18.872C100.425 18.48 100.668 18.0367 100.836 17.542C101.013 17.0473 101.102 16.5433 101.102 16.03C101.102 15.4887 101.009 14.9707 100.822 14.476C100.645 13.972 100.393 13.5287 100.066 13.146C99.7393 12.7633 99.3519 12.46 98.9039 12.236C98.4559 12.0027 97.9613 11.886 97.4199 11.886C96.8599 11.886 96.3513 12.0073 95.8939 12.25C95.4366 12.4833 95.0493 12.796 94.7319 13.188C94.4146 13.58 94.1673 14.0233 93.9899 14.518C93.8219 15.0127 93.7379 15.5167 93.7379 16.03ZM104.084 21V14.462H103.076V13.706H104.084V13.51C104.084 12.614 104.275 11.914 104.658 11.41C105.04 10.8967 105.563 10.64 106.226 10.64C106.515 10.64 106.795 10.682 107.066 10.766C107.336 10.85 107.57 10.962 107.766 11.102L107.472 11.788C107.341 11.6853 107.178 11.606 106.982 11.55C106.795 11.494 106.604 11.466 106.408 11.466C105.96 11.466 105.619 11.6387 105.386 11.984C105.152 12.3293 105.036 12.8287 105.036 13.482V13.706H107.052V14.462H105.036V21H104.084ZM111.16 15.96C111.16 15.3627 111.263 14.77 111.468 14.182C111.683 13.5847 111.991 13.0527 112.392 12.586C112.794 12.1193 113.288 11.7413 113.876 11.452C114.464 11.1533 115.132 11.004 115.878 11.004C116.765 11.004 117.521 11.2047 118.146 11.606C118.781 12.0073 119.248 12.53 119.546 13.174L118.776 13.65C118.618 13.3233 118.422 13.048 118.188 12.824C117.964 12.6 117.722 12.418 117.46 12.278C117.199 12.138 116.928 12.04 116.648 11.984C116.368 11.9187 116.093 11.886 115.822 11.886C115.225 11.886 114.698 12.0073 114.24 12.25C113.783 12.4927 113.396 12.81 113.078 13.202C112.77 13.594 112.537 14.0373 112.378 14.532C112.22 15.0173 112.14 15.512 112.14 16.016C112.14 16.5667 112.234 17.094 112.42 17.598C112.616 18.102 112.878 18.55 113.204 18.942C113.54 19.3247 113.932 19.6327 114.38 19.866C114.838 20.09 115.332 20.202 115.864 20.202C116.144 20.202 116.429 20.1693 116.718 20.104C117.017 20.0293 117.302 19.9173 117.572 19.768C117.852 19.6093 118.109 19.418 118.342 19.194C118.576 18.9607 118.772 18.6807 118.93 18.354L119.742 18.774C119.584 19.1473 119.36 19.4787 119.07 19.768C118.781 20.048 118.459 20.286 118.104 20.482C117.75 20.678 117.372 20.8273 116.97 20.93C116.578 21.0327 116.191 21.084 115.808 21.084C115.127 21.084 114.502 20.9347 113.932 20.636C113.363 20.3373 112.873 19.95 112.462 19.474C112.052 18.9887 111.73 18.4427 111.496 17.836C111.272 17.22 111.16 16.5947 111.16 15.96ZM124.328 21.14C123.796 21.14 123.311 21.042 122.872 20.846C122.433 20.6407 122.051 20.3653 121.724 20.02C121.407 19.6747 121.159 19.2733 120.982 18.816C120.805 18.3587 120.716 17.878 120.716 17.374C120.716 16.8607 120.805 16.3753 120.982 15.918C121.169 15.4607 121.421 15.0593 121.738 14.714C122.065 14.3687 122.447 14.0933 122.886 13.888C123.325 13.6827 123.805 13.58 124.328 13.58C124.851 13.58 125.331 13.6827 125.77 13.888C126.218 14.0933 126.601 14.3687 126.918 14.714C127.245 15.0593 127.497 15.4607 127.674 15.918C127.861 16.3753 127.954 16.8607 127.954 17.374C127.954 17.878 127.865 18.3587 127.688 18.816C127.511 19.2733 127.259 19.6747 126.932 20.02C126.615 20.3653 126.232 20.6407 125.784 20.846C125.345 21.042 124.86 21.14 124.328 21.14ZM121.682 17.388C121.682 17.7987 121.752 18.1813 121.892 18.536C122.032 18.8813 122.219 19.1893 122.452 19.46C122.695 19.7213 122.975 19.9267 123.292 20.076C123.619 20.2253 123.964 20.3 124.328 20.3C124.692 20.3 125.033 20.2253 125.35 20.076C125.677 19.9173 125.961 19.7073 126.204 19.446C126.447 19.1753 126.638 18.8627 126.778 18.508C126.918 18.1533 126.988 17.7707 126.988 17.36C126.988 16.9587 126.918 16.5807 126.778 16.226C126.638 15.862 126.447 15.5493 126.204 15.288C125.961 15.0173 125.677 14.8073 125.35 14.658C125.033 14.4993 124.692 14.42 124.328 14.42C123.964 14.42 123.623 14.4993 123.306 14.658C122.989 14.8073 122.709 15.0173 122.466 15.288C122.223 15.5587 122.032 15.876 121.892 16.24C121.752 16.5947 121.682 16.9773 121.682 17.388ZM140.396 21H139.444V16.926C139.444 16.0767 139.309 15.4513 139.038 15.05C138.767 14.6487 138.366 14.448 137.834 14.448C137.554 14.448 137.288 14.4993 137.036 14.602C136.793 14.7047 136.565 14.8493 136.35 15.036C136.145 15.2227 135.963 15.4467 135.804 15.708C135.645 15.96 135.524 16.24 135.44 16.548V21H134.488V16.926C134.488 16.058 134.357 15.428 134.096 15.036C133.835 14.644 133.433 14.448 132.892 14.448C132.341 14.448 131.851 14.6393 131.422 15.022C130.993 15.4047 130.685 15.9087 130.498 16.534V21H129.546V13.706H130.414V15.358C130.713 14.798 131.105 14.364 131.59 14.056C132.075 13.7387 132.612 13.58 133.2 13.58C133.816 13.58 134.306 13.7527 134.67 14.098C135.043 14.4433 135.272 14.896 135.356 15.456C136.037 14.2053 136.975 13.58 138.17 13.58C138.581 13.58 138.926 13.6547 139.206 13.804C139.495 13.9533 139.724 14.168 139.892 14.448C140.069 14.7187 140.195 15.05 140.27 15.442C140.354 15.8247 140.396 16.254 140.396 16.73V21ZM146.135 21.14C145.519 21.14 144.973 20.986 144.497 20.678C144.031 20.3607 143.653 19.964 143.363 19.488V23.982H142.411V13.706H143.265V15.12C143.564 14.6627 143.951 14.294 144.427 14.014C144.903 13.7247 145.421 13.58 145.981 13.58C146.485 13.58 146.947 13.6873 147.367 13.902C147.787 14.1073 148.151 14.3873 148.459 14.742C148.767 15.0873 149.005 15.4887 149.173 15.946C149.351 16.4033 149.439 16.8747 149.439 17.36C149.439 17.8733 149.36 18.3587 149.201 18.816C149.043 19.2733 148.814 19.6747 148.515 20.02C148.226 20.3653 147.876 20.6407 147.465 20.846C147.064 21.042 146.621 21.14 146.135 21.14ZM145.869 20.3C146.261 20.3 146.616 20.216 146.933 20.048C147.26 19.88 147.535 19.6607 147.759 19.39C147.993 19.11 148.17 18.7973 148.291 18.452C148.413 18.0973 148.473 17.7333 148.473 17.36C148.473 16.968 148.403 16.5947 148.263 16.24C148.123 15.8853 147.932 15.5727 147.689 15.302C147.447 15.0313 147.157 14.8167 146.821 14.658C146.495 14.4993 146.14 14.42 145.757 14.42C145.515 14.42 145.258 14.4713 144.987 14.574C144.726 14.6673 144.479 14.798 144.245 14.966C144.021 15.1247 143.825 15.316 143.657 15.54C143.499 15.7547 143.401 15.9833 143.363 16.226V18.466C143.475 18.7273 143.615 18.97 143.783 19.194C143.961 19.418 144.157 19.614 144.371 19.782C144.595 19.9407 144.833 20.0667 145.085 20.16C145.337 20.2533 145.599 20.3 145.869 20.3ZM152.886 21.14C152.541 21.14 152.219 21.084 151.92 20.972C151.631 20.8507 151.374 20.6873 151.15 20.482C150.935 20.2767 150.767 20.0387 150.646 19.768C150.525 19.488 150.464 19.1893 150.464 18.872C150.464 18.5547 150.539 18.2607 150.688 17.99C150.837 17.7193 151.047 17.486 151.318 17.29C151.589 17.094 151.911 16.9447 152.284 16.842C152.657 16.73 153.068 16.674 153.516 16.674C153.889 16.674 154.267 16.7067 154.65 16.772C155.033 16.8373 155.373 16.9307 155.672 17.052V16.394C155.672 15.75 155.49 15.2413 155.126 14.868C154.762 14.4853 154.258 14.294 153.614 14.294C153.241 14.294 152.858 14.3687 152.466 14.518C152.074 14.6673 151.677 14.882 151.276 15.162L150.94 14.532C151.883 13.8973 152.797 13.58 153.684 13.58C154.599 13.58 155.317 13.8367 155.84 14.35C156.363 14.8633 156.624 15.5727 156.624 16.478V19.768C156.624 20.0293 156.741 20.16 156.974 20.16V21C156.815 21.028 156.694 21.042 156.61 21.042C156.367 21.042 156.176 20.9813 156.036 20.86C155.905 20.7387 155.835 20.5707 155.826 20.356L155.798 19.782C155.462 20.2207 155.037 20.5567 154.524 20.79C154.02 21.0233 153.474 21.14 152.886 21.14ZM153.11 20.412C153.605 20.412 154.057 20.3187 154.468 20.132C154.888 19.9453 155.205 19.698 155.42 19.39C155.504 19.306 155.565 19.2173 155.602 19.124C155.649 19.0213 155.672 18.928 155.672 18.844V17.654C155.355 17.5327 155.023 17.4393 154.678 17.374C154.342 17.3087 153.997 17.276 153.642 17.276C152.97 17.276 152.424 17.416 152.004 17.696C151.584 17.976 151.374 18.3447 151.374 18.802C151.374 19.026 151.416 19.236 151.5 19.432C151.593 19.628 151.715 19.8007 151.864 19.95C152.023 20.09 152.209 20.202 152.424 20.286C152.639 20.37 152.867 20.412 153.11 20.412ZM161.103 21.14C160.534 21.14 159.978 21.0467 159.437 20.86C158.896 20.6733 158.429 20.4027 158.037 20.048L158.471 19.404C158.882 19.74 159.297 19.992 159.717 20.16C160.146 20.328 160.604 20.412 161.089 20.412C161.677 20.412 162.144 20.2953 162.489 20.062C162.844 19.8193 163.021 19.4787 163.021 19.04C163.021 18.8347 162.974 18.6667 162.881 18.536C162.788 18.396 162.648 18.2747 162.461 18.172C162.284 18.0693 162.055 17.9807 161.775 17.906C161.504 17.822 161.187 17.738 160.823 17.654C160.403 17.5513 160.039 17.4487 159.731 17.346C159.423 17.2433 159.166 17.1267 158.961 16.996C158.765 16.8653 158.616 16.7067 158.513 16.52C158.42 16.324 158.373 16.0813 158.373 15.792C158.373 15.428 158.443 15.106 158.583 14.826C158.732 14.546 158.928 14.3173 159.171 14.14C159.423 13.9533 159.712 13.8133 160.039 13.72C160.375 13.6267 160.73 13.58 161.103 13.58C161.663 13.58 162.172 13.6733 162.629 13.86C163.086 14.0373 163.455 14.2753 163.735 14.574L163.273 15.134C163.002 14.854 162.671 14.644 162.279 14.504C161.896 14.364 161.495 14.294 161.075 14.294C160.823 14.294 160.59 14.322 160.375 14.378C160.16 14.4247 159.969 14.504 159.801 14.616C159.642 14.728 159.516 14.8727 159.423 15.05C159.33 15.218 159.283 15.4187 159.283 15.652C159.283 15.848 159.316 16.0067 159.381 16.128C159.446 16.2493 159.554 16.3567 159.703 16.45C159.852 16.534 160.039 16.6133 160.263 16.688C160.496 16.7533 160.776 16.8233 161.103 16.898C161.57 17.01 161.98 17.122 162.335 17.234C162.69 17.346 162.984 17.4767 163.217 17.626C163.46 17.7753 163.642 17.9573 163.763 18.172C163.884 18.3867 163.945 18.648 163.945 18.956C163.945 19.628 163.688 20.16 163.175 20.552C162.662 20.944 161.971 21.14 161.103 21.14ZM167.925 21.14C167.356 21.14 166.8 21.0467 166.259 20.86C165.718 20.6733 165.251 20.4027 164.859 20.048L165.293 19.404C165.704 19.74 166.119 19.992 166.539 20.16C166.968 20.328 167.426 20.412 167.911 20.412C168.499 20.412 168.966 20.2953 169.311 20.062C169.666 19.8193 169.843 19.4787 169.843 19.04C169.843 18.8347 169.796 18.6667 169.703 18.536C169.61 18.396 169.47 18.2747 169.283 18.172C169.106 18.0693 168.877 17.9807 168.597 17.906C168.326 17.822 168.009 17.738 167.645 17.654C167.225 17.5513 166.861 17.4487 166.553 17.346C166.245 17.2433 165.988 17.1267 165.783 16.996C165.587 16.8653 165.438 16.7067 165.335 16.52C165.242 16.324 165.195 16.0813 165.195 15.792C165.195 15.428 165.265 15.106 165.405 14.826C165.554 14.546 165.75 14.3173 165.993 14.14C166.245 13.9533 166.534 13.8133 166.861 13.72C167.197 13.6267 167.552 13.58 167.925 13.58C168.485 13.58 168.994 13.6733 169.451 13.86C169.908 14.0373 170.277 14.2753 170.557 14.574L170.095 15.134C169.824 14.854 169.493 14.644 169.101 14.504C168.718 14.364 168.317 14.294 167.897 14.294C167.645 14.294 167.412 14.322 167.197 14.378C166.982 14.4247 166.791 14.504 166.623 14.616C166.464 14.728 166.338 14.8727 166.245 15.05C166.152 15.218 166.105 15.4187 166.105 15.652C166.105 15.848 166.138 16.0067 166.203 16.128C166.268 16.2493 166.376 16.3567 166.525 16.45C166.674 16.534 166.861 16.6133 167.085 16.688C167.318 16.7533 167.598 16.8233 167.925 16.898C168.392 17.01 168.802 17.122 169.157 17.234C169.512 17.346 169.806 17.4767 170.039 17.626C170.282 17.7753 170.464 17.9573 170.585 18.172C170.706 18.3867 170.767 18.648 170.767 18.956C170.767 19.628 170.51 20.16 169.997 20.552C169.484 20.944 168.793 21.14 167.925 21.14ZM172.325 21V13.706H173.277V21H172.325ZM172.325 12.18V10.78H173.277V12.18H172.325ZM178.482 21.14C177.95 21.14 177.465 21.042 177.026 20.846C176.588 20.6407 176.205 20.3653 175.878 20.02C175.561 19.6747 175.314 19.2733 175.136 18.816C174.959 18.3587 174.87 17.878 174.87 17.374C174.87 16.8607 174.959 16.3753 175.136 15.918C175.323 15.4607 175.575 15.0593 175.892 14.714C176.219 14.3687 176.602 14.0933 177.04 13.888C177.479 13.6827 177.96 13.58 178.482 13.58C179.005 13.58 179.486 13.6827 179.924 13.888C180.372 14.0933 180.755 14.3687 181.072 14.714C181.399 15.0593 181.651 15.4607 181.828 15.918C182.015 16.3753 182.108 16.8607 182.108 17.374C182.108 17.878 182.02 18.3587 181.842 18.816C181.665 19.2733 181.413 19.6747 181.086 20.02C180.769 20.3653 180.386 20.6407 179.938 20.846C179.5 21.042 179.014 21.14 178.482 21.14ZM175.836 17.388C175.836 17.7987 175.906 18.1813 176.046 18.536C176.186 18.8813 176.373 19.1893 176.606 19.46C176.849 19.7213 177.129 19.9267 177.446 20.076C177.773 20.2253 178.118 20.3 178.482 20.3C178.846 20.3 179.187 20.2253 179.504 20.076C179.831 19.9173 180.116 19.7073 180.358 19.446C180.601 19.1753 180.792 18.8627 180.932 18.508C181.072 18.1533 181.142 17.7707 181.142 17.36C181.142 16.9587 181.072 16.5807 180.932 16.226C180.792 15.862 180.601 15.5493 180.358 15.288C180.116 15.0173 179.831 14.8073 179.504 14.658C179.187 14.4993 178.846 14.42 178.482 14.42C178.118 14.42 177.778 14.4993 177.46 14.658C177.143 14.8073 176.863 15.0173 176.62 15.288C176.378 15.5587 176.186 15.876 176.046 16.24C175.906 16.5947 175.836 16.9773 175.836 17.388ZM189.832 21H188.88V16.926C188.88 16.058 188.75 15.428 188.488 15.036C188.236 14.644 187.844 14.448 187.312 14.448C187.032 14.448 186.752 14.4993 186.472 14.602C186.192 14.7047 185.931 14.8493 185.688 15.036C185.455 15.2227 185.245 15.4467 185.058 15.708C184.872 15.96 184.736 16.2353 184.652 16.534V21H183.7V13.706H184.568V15.358C184.867 14.826 185.292 14.3967 185.842 14.07C186.402 13.7433 187.009 13.58 187.662 13.58C188.064 13.58 188.404 13.6547 188.684 13.804C188.964 13.9533 189.188 14.1633 189.356 14.434C189.524 14.7047 189.646 15.036 189.72 15.428C189.795 15.82 189.832 16.254 189.832 16.73V21Z" fill="black"/>
<path d="M70.1875 38.189C70.1875 38.9043 70.0457 39.5087 69.762 40.002C69.4783 40.483 69.1022 40.8715 68.6335 41.1675C68.1648 41.4635 67.6283 41.6793 67.024 41.815C66.432 41.9383 65.8215 42 65.1925 42H59.9755V28.902H65.1925C65.6982 28.902 66.2162 28.9575 66.7465 29.0685C67.2768 29.1672 67.7578 29.346 68.1895 29.605C68.6212 29.8517 68.9727 30.1908 69.244 30.6225C69.5153 31.0542 69.651 31.603 69.651 32.269C69.651 32.9967 69.4537 33.601 69.059 34.082C68.6643 34.5507 68.1463 34.8898 67.505 35.0995V35.1365C67.875 35.1982 68.2203 35.3153 68.541 35.488C68.874 35.6483 69.1577 35.858 69.392 36.117C69.6387 36.376 69.8298 36.6782 69.9655 37.0235C70.1135 37.3688 70.1875 37.7573 70.1875 38.189ZM66.5985 32.6945C66.5985 32.2505 66.4258 31.9298 66.0805 31.7325C65.7475 31.5228 65.248 31.418 64.582 31.418H63.028V34.119H64.73C65.322 34.119 65.7783 34.0018 66.099 33.7675C66.432 33.5208 66.5985 33.1632 66.5985 32.6945ZM67.024 37.893C67.024 37.3503 66.8205 36.9742 66.4135 36.7645C66.0065 36.5548 65.4638 36.45 64.7855 36.45H63.028V39.447H64.804C65.0507 39.447 65.3035 39.4285 65.5625 39.3915C65.8338 39.3422 66.0743 39.262 66.284 39.151C66.506 39.04 66.6848 38.8858 66.8205 38.6885C66.9562 38.4788 67.024 38.2137 67.024 37.893ZM72.2787 42V28.902H75.4607V42H72.2787ZM86.1789 42L81.3134 35.969H81.2764V42H78.1684V28.902H81.2764V34.23H81.3319L86.0124 28.902H89.9714L84.3289 34.933L90.3044 42H86.1789ZM91.3207 42V28.902H100.127V31.5845H94.3732V34.045H99.8122V36.5795H94.3732V39.299H100.46V42H91.3207ZM117.118 32.935C117.118 33.6997 116.976 34.3472 116.692 34.8775C116.408 35.3955 116.026 35.8148 115.545 36.1355C115.064 36.4562 114.509 36.6905 113.88 36.8385C113.251 36.9865 112.597 37.0605 111.919 37.0605H110.347V42H107.183V28.902H111.993C112.708 28.902 113.374 28.976 113.991 29.124C114.62 29.2597 115.163 29.4878 115.619 29.8085C116.088 30.1168 116.452 30.53 116.711 31.048C116.982 31.5537 117.118 32.1827 117.118 32.935ZM113.954 32.9535C113.954 32.6452 113.892 32.3923 113.769 32.195C113.646 31.9977 113.479 31.8435 113.27 31.7325C113.06 31.6215 112.819 31.5475 112.548 31.5105C112.289 31.4735 112.018 31.455 111.734 31.455H110.347V34.5445H111.679C111.975 34.5445 112.258 34.5198 112.53 34.4705C112.801 34.4212 113.041 34.3348 113.251 34.2115C113.473 34.0882 113.646 33.9278 113.769 33.7305C113.892 33.5208 113.954 33.2618 113.954 32.9535ZM126.028 42L123.198 36.8015H122.125V42H119.017V28.902H124.012C124.641 28.902 125.251 28.9698 125.843 29.1055C126.447 29.2288 126.984 29.4447 127.453 29.753C127.934 30.0613 128.316 30.4683 128.6 30.974C128.883 31.4797 129.025 32.1087 129.025 32.861C129.025 33.749 128.785 34.4952 128.304 35.0995C127.823 35.7038 127.157 36.1355 126.306 36.3945L129.728 42H126.028ZM125.899 32.9165C125.899 32.6082 125.831 32.3615 125.695 32.1765C125.572 31.9792 125.405 31.8312 125.196 31.7325C124.998 31.6215 124.77 31.5475 124.511 31.5105C124.264 31.4735 124.024 31.455 123.79 31.455H122.106V34.5075H123.605C123.864 34.5075 124.129 34.489 124.4 34.452C124.671 34.4027 124.918 34.3225 125.14 34.2115C125.362 34.1005 125.541 33.9402 125.677 33.7305C125.825 33.5208 125.899 33.2495 125.899 32.9165ZM144.937 35.3955C144.937 36.4315 144.758 37.3812 144.4 38.2445C144.042 39.0955 143.543 39.8293 142.902 40.446C142.273 41.0503 141.52 41.519 140.645 41.852C139.769 42.185 138.819 42.3515 137.796 42.3515C136.772 42.3515 135.822 42.185 134.947 41.852C134.083 41.519 133.331 41.0503 132.69 40.446C132.061 39.8293 131.567 39.0955 131.21 38.2445C130.852 37.3812 130.673 36.4315 130.673 35.3955C130.673 34.3472 130.852 33.4037 131.21 32.565C131.567 31.714 132.061 30.9925 132.69 30.4005C133.331 29.8085 134.083 29.3522 134.947 29.0315C135.822 28.7108 136.772 28.5505 137.796 28.5505C138.819 28.5505 139.769 28.7108 140.645 29.0315C141.52 29.3522 142.273 29.8085 142.902 30.4005C143.543 30.9925 144.042 31.714 144.4 32.565C144.758 33.4037 144.937 34.3472 144.937 35.3955ZM141.551 35.3955C141.551 34.8282 141.459 34.2978 141.274 33.8045C141.089 33.3112 140.83 32.8918 140.497 32.5465C140.176 32.1888 139.781 31.9113 139.313 31.714C138.856 31.5043 138.351 31.3995 137.796 31.3995C137.241 31.3995 136.735 31.5043 136.279 31.714C135.822 31.9113 135.428 32.1888 135.095 32.5465C134.762 32.8918 134.503 33.3112 134.318 33.8045C134.145 34.2978 134.059 34.8282 134.059 35.3955C134.059 35.9875 134.151 36.5363 134.336 37.042C134.521 37.5353 134.774 37.9608 135.095 38.3185C135.428 38.6762 135.822 38.9598 136.279 39.1695C136.735 39.3668 137.241 39.4655 137.796 39.4655C138.351 39.4655 138.856 39.3668 139.313 39.1695C139.769 38.9598 140.164 38.6762 140.497 38.3185C140.83 37.9608 141.089 37.5353 141.274 37.042C141.459 36.5363 141.551 35.9875 141.551 35.3955ZM153.51 37.523C153.51 38.041 153.449 38.5837 153.325 39.151C153.214 39.7183 152.999 40.2425 152.678 40.7235C152.37 41.1922 151.932 41.5807 151.364 41.889C150.809 42.1973 150.088 42.3515 149.2 42.3515C148.09 42.3515 147.165 42.0678 146.425 41.5005C145.685 40.9208 145.192 40.1808 144.945 39.2805L147.738 38.337C147.825 38.6823 147.979 38.9598 148.201 39.1695C148.435 39.3792 148.719 39.484 149.052 39.484C149.57 39.484 149.909 39.3052 150.069 38.9475C150.242 38.5898 150.328 38.1212 150.328 37.5415V28.902H153.51V37.523ZM156.143 42V28.902H164.949V31.5845H159.195V34.045H164.634V36.5795H159.195V39.299H165.282V42H156.143ZM178.906 40.187C178.326 40.853 177.611 41.3833 176.76 41.778C175.909 42.1603 174.928 42.3515 173.818 42.3515C172.807 42.3515 171.87 42.185 171.006 41.852C170.155 41.519 169.415 41.0503 168.786 40.446C168.157 39.8293 167.664 39.0955 167.306 38.2445C166.949 37.3935 166.77 36.4562 166.77 35.4325C166.77 34.3842 166.949 33.4345 167.306 32.5835C167.676 31.7325 168.182 31.011 168.823 30.419C169.465 29.8147 170.217 29.3522 171.08 29.0315C171.944 28.7108 172.875 28.5505 173.874 28.5505C174.799 28.5505 175.705 28.717 176.593 29.05C177.494 29.3707 178.221 29.8455 178.776 30.4745L176.63 32.6205C176.334 32.2135 175.946 31.9113 175.465 31.714C174.984 31.5167 174.49 31.418 173.985 31.418C173.43 31.418 172.918 31.5228 172.449 31.7325C171.993 31.9298 171.598 32.2073 171.265 32.565C170.932 32.9227 170.673 33.3482 170.488 33.8415C170.303 34.3225 170.211 34.8528 170.211 35.4325C170.211 36.0245 170.303 36.5672 170.488 37.0605C170.673 37.5538 170.926 37.9793 171.247 38.337C171.58 38.6823 171.974 38.9537 172.431 39.151C172.887 39.3483 173.387 39.447 173.929 39.447C174.558 39.447 175.107 39.3237 175.576 39.077C176.044 38.8303 176.421 38.5097 176.704 38.115L178.906 40.187ZM185.759 31.603V42H182.595V31.603H178.895V28.902H189.459V31.603H185.759Z" fill="#1A2328"/>
<defs>
<clipPath id="clip0">
<rect width="54" height="54" fill="white"/>
</clipPath>
</defs>
</svg>